<svg width="116" height="33" viewBox="0 0 116 33" fill="none" xmlns="http://www.w3.org/2000/svg">
<rect x="0.380446" y="0.380446" width="114.439" height="31.7405" rx="3.42401" fill="black" stroke="#B2B2B2" stroke-width="0.760892"/>
<path d="M34.046 7.12135C34.6583 7.12135 35.1836 7.2322 35.6217 7.45392C36.0599 7.67563 36.3951 7.995 36.6274 8.41203C36.8596 8.82906 36.9758 9.32528 36.9758 9.90068C36.9758 10.4708 36.8596 10.9644 36.6274 11.3814C36.3951 11.7932 36.0599 12.1099 35.6217 12.3316C35.1836 12.548 34.6583 12.6562 34.046 12.6562H32.4069V7.12135H34.046ZM34.046 12.197C34.8167 12.197 35.4027 11.9964 35.8039 11.5952C36.2103 11.1887 36.4136 10.6239 36.4136 9.90068C36.4136 9.17219 36.2103 8.60471 35.8039 8.19824C35.4027 7.78648 34.8167 7.58061 34.046 7.58061H32.9612V12.197H34.046ZM39.8901 12.7196C39.4837 12.7196 39.1168 12.6299 38.7895 12.4504C38.4675 12.2656 38.2115 12.0069 38.0214 11.6744C37.8367 11.3365 37.7443 10.9433 37.7443 10.4945C37.7443 10.0458 37.8393 9.65521 38.0293 9.32264C38.2194 8.98479 38.478 8.72612 38.8053 8.54664C39.1326 8.36188 39.4995 8.2695 39.906 8.2695C40.3125 8.2695 40.6793 8.36188 41.0066 8.54664C41.3392 8.72612 41.5979 8.98479 41.7826 9.32264C41.9727 9.65521 42.0677 10.0458 42.0677 10.4945C42.0677 10.938 41.9727 11.3286 41.7826 11.6665C41.5926 12.0043 41.3313 12.2656 40.9987 12.4504C40.6661 12.6299 40.2966 12.7196 39.8901 12.7196ZM39.8901 12.2366C40.1752 12.2366 40.4391 12.1732 40.682 12.0465C40.9248 11.9146 41.1201 11.7192 41.2679 11.4606C41.421 11.1966 41.4976 10.8746 41.4976 10.4945C41.4976 10.1145 41.4237 9.7951 41.2759 9.53643C41.128 9.27249 40.9327 9.07717 40.6899 8.95048C40.4471 8.81851 40.1831 8.75252 39.8981 8.75252C39.613 8.75252 39.3491 8.81851 39.1062 8.95048C38.8634 9.07717 38.6681 9.27249 38.5203 9.53643C38.3777 9.7951 38.3065 10.1145 38.3065 10.4945C38.3065 10.8746 38.3777 11.1966 38.5203 11.4606C38.6681 11.7192 38.8608 11.9146 39.0983 12.0465C39.3411 12.1732 39.6051 12.2366 39.8901 12.2366ZM48.7793 8.33285L47.4252 12.6562H46.8709L45.6753 9.02966L44.4796 12.6562H43.9174L42.5634 8.33285H43.1256L44.2025 12.094L45.414 8.33285H45.9683L47.1639 12.102L48.2329 8.33285H48.7793ZM51.562 8.25366C52.0793 8.25366 52.5016 8.41467 52.8289 8.73668C53.1562 9.05342 53.3199 9.51532 53.3199 10.1224V12.6562H52.7735V10.1857C52.7735 9.71591 52.6547 9.35695 52.4172 9.10884C52.1849 8.86074 51.8655 8.73668 51.4591 8.73668C51.042 8.73668 50.7095 8.86865 50.4613 9.1326C50.2132 9.39654 50.0892 9.78454 50.0892 10.2966V12.6562H49.5349V8.33285H50.0892V9.06925C50.2264 8.80531 50.4244 8.60471 50.6831 8.46746C50.9417 8.32493 51.2347 8.25366 51.562 8.25366ZM55.1 6.79669V12.6562H54.5457V6.79669H55.1ZM58.2477 12.7196C57.8412 12.7196 57.4743 12.6299 57.147 12.4504C56.825 12.2656 56.569 12.0069 56.3789 11.6744C56.1942 11.3365 56.1018 10.9433 56.1018 10.4945C56.1018 10.0458 56.1968 9.65521 56.3868 9.32264C56.5769 8.98479 56.8356 8.72612 57.1628 8.54664C57.4901 8.36188 57.857 8.2695 58.2635 8.2695C58.67 8.2695 59.0368 8.36188 59.3641 8.54664C59.6967 8.72612 59.9554 8.98479 60.1401 9.32264C60.3302 9.65521 60.4252 10.0458 60.4252 10.4945C60.4252 10.938 60.3302 11.3286 60.1401 11.6665C59.9501 12.0043 59.6888 12.2656 59.3562 12.4504C59.0236 12.6299 58.6541 12.7196 58.2477 12.7196ZM58.2477 12.2366C58.5327 12.2366 58.7967 12.1732 59.0395 12.0465C59.2823 11.9146 59.4776 11.7192 59.6254 11.4606C59.7785 11.1966 59.8551 10.8746 59.8551 10.4945C59.8551 10.1145 59.7812 9.7951 59.6334 9.53643C59.4856 9.27249 59.2902 9.07717 59.0474 8.95048C58.8046 8.81851 58.5406 8.75252 58.2556 8.75252C57.9705 8.75252 57.7066 8.81851 57.4637 8.95048C57.2209 9.07717 57.0256 9.27249 56.8778 9.53643C56.7353 9.7951 56.664 10.1145 56.664 10.4945C56.664 10.8746 56.7353 11.1966 56.8778 11.4606C57.0256 11.7192 57.2183 11.9146 57.4558 12.0465C57.6987 12.1732 57.9626 12.2366 58.2477 12.2366ZM61.1822 10.4866C61.1822 10.0432 61.2693 9.65521 61.4435 9.32264C61.623 8.98479 61.8684 8.72612 62.1799 8.54664C62.4966 8.36188 62.853 8.2695 63.2489 8.2695C63.6606 8.2695 64.0143 8.36452 64.3099 8.55456C64.6108 8.7446 64.8273 8.98743 64.9592 9.28305V8.33285H65.5135V12.6562H64.9592V11.6981C64.822 11.9938 64.6029 12.2392 64.302 12.4345C64.0064 12.6246 63.6527 12.7196 63.241 12.7196C62.8503 12.7196 62.4966 12.6272 62.1799 12.4425C61.8684 12.2577 61.623 11.9964 61.4435 11.6585C61.2693 11.3207 61.1822 10.9301 61.1822 10.4866ZM64.9592 10.4945C64.9592 10.1461 64.888 9.83997 64.7454 9.57602C64.6029 9.31208 64.4076 9.10884 64.1595 8.96631C63.9167 8.82378 63.6474 8.75252 63.3518 8.75252C63.0456 8.75252 62.7711 8.82114 62.5283 8.9584C62.2855 9.09565 62.0928 9.29624 61.9503 9.56019C61.813 9.81885 61.7444 10.1277 61.7444 10.4866C61.7444 10.8403 61.813 11.1518 61.9503 11.421C62.0928 11.6849 62.2855 11.8882 62.5283 12.0307C62.7711 12.168 63.0456 12.2366 63.3518 12.2366C63.6474 12.2366 63.9167 12.1653 64.1595 12.0228C64.4076 11.8803 64.6029 11.677 64.7454 11.4131C64.888 11.1491 64.9592 10.843 64.9592 10.4945ZM66.5255 10.4866C66.5255 10.0432 66.6153 9.65521 66.7947 9.32264C66.9742 8.98479 67.2197 8.72612 67.5311 8.54664C67.8479 8.36188 68.2042 8.2695 68.6001 8.2695C68.9802 8.2695 69.3233 8.36188 69.6295 8.54664C69.9357 8.7314 70.16 8.97159 70.3025 9.26721V6.79669H70.8568V12.6562H70.3025V11.6902C70.1706 11.9911 69.9541 12.2392 69.6532 12.4345C69.3524 12.6246 68.9987 12.7196 68.5922 12.7196C68.1963 12.7196 67.84 12.6272 67.5232 12.4425C67.2118 12.2577 66.9663 11.9964 66.7868 11.6585C66.6126 11.3207 66.5255 10.9301 66.5255 10.4866ZM70.3025 10.4945C70.3025 10.1461 70.2313 9.83997 70.0888 9.57602C69.9462 9.31208 69.7509 9.10884 69.5028 8.96631C69.26 8.82378 68.9907 8.75252 68.6951 8.75252C68.389 8.75252 68.1145 8.82114 67.8716 8.9584C67.6288 9.09565 67.4361 9.29624 67.2936 9.56019C67.1563 9.81885 67.0877 10.1277 67.0877 10.4866C67.0877 10.8403 67.1563 11.1518 67.2936 11.421C67.4361 11.6849 67.6288 11.8882 67.8716 12.0307C68.1145 12.168 68.389 12.2366 68.6951 12.2366C68.9907 12.2366 69.26 12.1653 69.5028 12.0228C69.7509 11.8803 69.9462 11.677 70.0888 11.4131C70.2313 11.1491 70.3025 10.843 70.3025 10.4945ZM76.1876 12.7196C75.7811 12.7196 75.4142 12.6299 75.0869 12.4504C74.7649 12.2656 74.5089 12.0069 74.3189 11.6744C74.1341 11.3365 74.0417 10.9433 74.0417 10.4945C74.0417 10.0458 74.1367 9.65521 74.3268 9.32264C74.5168 8.98479 74.7755 8.72612 75.1028 8.54664C75.4301 8.36188 75.797 8.2695 76.2034 8.2695C76.6099 8.2695 76.9768 8.36188 77.3041 8.54664C77.6366 8.72612 77.8953 8.98479 78.0801 9.32264C78.2701 9.65521 78.3651 10.0458 78.3651 10.4945C78.3651 10.938 78.2701 11.3286 78.0801 11.6665C77.89 12.0043 77.6287 12.2656 77.2962 12.4504C76.9636 12.6299 76.5941 12.7196 76.1876 12.7196ZM76.1876 12.2366C76.4727 12.2366 76.7366 12.1732 76.9794 12.0465C77.2223 11.9146 77.4176 11.7192 77.5654 11.4606C77.7185 11.1966 77.795 10.8746 77.795 10.4945C77.795 10.1145 77.7211 9.7951 77.5733 9.53643C77.4255 9.27249 77.2302 9.07717 76.9873 8.95048C76.7445 8.81851 76.4806 8.75252 76.1955 8.75252C75.9105 8.75252 75.6465 8.81851 75.4037 8.95048C75.1608 9.07717 74.9655 9.27249 74.8177 9.53643C74.6752 9.7951 74.6039 10.1145 74.6039 10.4945C74.6039 10.8746 74.6752 11.1966 74.8177 11.4606C74.9655 11.7192 75.1582 11.9146 75.3958 12.0465C75.6386 12.1732 75.9025 12.2366 76.1876 12.2366ZM81.4026 8.25366C81.9199 8.25366 82.3422 8.41467 82.6695 8.73668C82.9968 9.05342 83.1605 9.51532 83.1605 10.1224V12.6562H82.6141V10.1857C82.6141 9.71591 82.4953 9.35695 82.2578 9.10884C82.0255 8.86074 81.7061 8.73668 81.2997 8.73668C80.8826 8.73668 80.5501 8.86865 80.302 9.1326C80.0539 9.39654 79.9298 9.78454 79.9298 10.2966V12.6562H79.3755V8.33285H79.9298V9.06925C80.0671 8.80531 80.265 8.60471 80.5237 8.46746C80.7823 8.32493 81.0753 8.25366 81.4026 8.25366ZM87.2798 8.80003V11.4843C87.2798 11.7483 87.3299 11.9304 87.4302 12.0307C87.5305 12.131 87.7074 12.1812 87.9608 12.1812H88.4675V12.6562H87.8737C87.483 12.6562 87.1927 12.5665 87.0027 12.387C86.8126 12.2023 86.7176 11.9014 86.7176 11.4843V8.80003H86.1158V8.33285H86.7176V7.24804H87.2798V8.33285H88.4675V8.80003H87.2798ZM91.4404 8.25366C91.7677 8.25366 92.0607 8.32229 92.3194 8.45954C92.5833 8.59679 92.7892 8.80795 92.937 9.09301C93.0901 9.37279 93.1666 9.71591 93.1666 10.1224V12.6562H92.6203V10.1857C92.6203 9.71591 92.5015 9.35695 92.2639 9.10884C92.0317 8.86074 91.7123 8.73668 91.3058 8.73668C90.8888 8.73668 90.5562 8.86865 90.3081 9.1326C90.06 9.39654 89.936 9.78454 89.936 10.2966V12.6562H89.3817V6.79669H89.936V9.06925C90.0732 8.81059 90.2738 8.60999 90.5378 8.46746C90.807 8.32493 91.1079 8.25366 91.4404 8.25366ZM98.3041 10.2728C98.3041 10.4629 98.2989 10.608 98.2883 10.7083H94.7013C94.7171 11.0356 94.7963 11.3154 94.9388 11.5477C95.0814 11.78 95.2688 11.9568 95.501 12.0782C95.7333 12.1943 95.9867 12.2524 96.2612 12.2524C96.6202 12.2524 96.9211 12.1653 97.1639 11.9911C97.412 11.8169 97.5756 11.582 97.6548 11.2864H98.2408C98.1352 11.7087 97.9082 12.0545 97.5598 12.3237C97.2167 12.5876 96.7838 12.7196 96.2612 12.7196C95.8547 12.7196 95.4905 12.6299 95.1685 12.4504C94.8465 12.2656 94.5931 12.0069 94.4083 11.6744C94.2288 11.3365 94.1391 10.9433 94.1391 10.4945C94.1391 10.0458 94.2288 9.65257 94.4083 9.31472C94.5878 8.97687 94.8385 8.71821 95.1606 8.53872C95.4826 8.35924 95.8495 8.2695 96.2612 8.2695C96.673 8.2695 97.0319 8.35924 97.3381 8.53872C97.6496 8.71821 97.8871 8.96103 98.0507 9.26721C98.2197 9.56811 98.3041 9.90331 98.3041 10.2728ZM97.7419 10.257C97.7472 9.93499 97.6812 9.66049 97.544 9.43349C97.412 9.2065 97.2299 9.03494 96.9976 8.9188C96.7653 8.80267 96.512 8.7446 96.2375 8.7446C95.8257 8.7446 95.4747 8.87657 95.1843 9.14052C94.894 9.40446 94.733 9.77662 94.7013 10.257H97.7419Z" fill="white"/>
<path d="M37.4485 24.1888H33.6407L32.9864 26.0469H31.4293L34.6875 16.9395H36.4148L39.673 26.0469H38.1028L37.4485 24.1888ZM37.0298 22.9718L35.5512 18.7453L34.0594 22.9718H37.0298ZM42.5815 19.8968C42.8345 19.5653 43.179 19.2861 43.6152 19.0593C44.0514 18.8325 44.5443 18.7191 45.0939 18.7191C45.722 18.7191 46.2933 18.8761 46.808 19.1902C47.3315 19.4955 47.7415 19.9273 48.0381 20.4856C48.3347 21.0439 48.483 21.6851 48.483 22.4091C48.483 23.1332 48.3347 23.7831 48.0381 24.3589C47.7415 24.9259 47.3315 25.3708 46.808 25.6936C46.2933 26.0076 45.722 26.1646 45.0939 26.1646C44.5443 26.1646 44.0558 26.0556 43.6283 25.8375C43.2008 25.6107 42.8519 25.3315 42.5815 25V29.4752H41.0897V18.8368H42.5815V19.8968ZM46.9651 22.4091C46.9651 21.9119 46.8604 21.4845 46.651 21.1268C46.4504 20.7604 46.1799 20.4856 45.8397 20.3024C45.5082 20.1105 45.1506 20.0145 44.7667 20.0145C44.3916 20.0145 44.0339 20.1105 43.6937 20.3024C43.3622 20.4943 43.0918 20.7735 42.8824 21.1399C42.6818 21.5063 42.5815 21.9381 42.5815 22.4353C42.5815 22.9326 42.6818 23.3687 42.8824 23.7439C43.0918 24.1102 43.3622 24.3894 43.6937 24.5813C44.0339 24.7732 44.3916 24.8692 44.7667 24.8692C45.1506 24.8692 45.5082 24.7732 45.8397 24.5813C46.1799 24.3807 46.4504 24.0928 46.651 23.7177C46.8604 23.3426 46.9651 22.9064 46.9651 22.4091ZM51.4499 19.8968C51.7028 19.5653 52.0474 19.2861 52.4836 19.0593C52.9198 18.8325 53.4127 18.7191 53.9622 18.7191C54.5903 18.7191 55.1617 18.8761 55.6764 19.1902C56.1998 19.4955 56.6098 19.9273 56.9064 20.4856C57.2031 21.0439 57.3514 21.6851 57.3514 22.4091C57.3514 23.1332 57.2031 23.7831 56.9064 24.3589C56.6098 24.9259 56.1998 25.3708 55.6764 25.6936C55.1617 26.0076 54.5903 26.1646 53.9622 26.1646C53.4127 26.1646 52.9241 26.0556 52.4967 25.8375C52.0692 25.6107 51.7203 25.3315 51.4499 25V29.4752H49.9581V18.8368H51.4499V19.8968ZM55.8335 22.4091C55.8335 21.9119 55.7288 21.4845 55.5194 21.1268C55.3188 20.7604 55.0483 20.4856 54.7081 20.3024C54.3766 20.1105 54.0189 20.0145 53.6351 20.0145C53.26 20.0145 52.9023 20.1105 52.5621 20.3024C52.2306 20.4943 51.9602 20.7735 51.7508 21.1399C51.5502 21.5063 51.4499 21.9381 51.4499 22.4353C51.4499 22.9326 51.5502 23.3687 51.7508 23.7439C51.9602 24.1102 52.2306 24.3894 52.5621 24.5813C52.9023 24.7732 53.26 24.8692 53.6351 24.8692C54.0189 24.8692 54.3766 24.7732 54.7081 24.5813C55.0483 24.3807 55.3188 24.0928 55.5194 23.7177C55.7288 23.3426 55.8335 22.9064 55.8335 22.4091ZM65.2222 26.1385C64.6115 26.1385 64.062 26.0338 63.5734 25.8244C63.0849 25.6063 62.7011 25.301 62.4219 24.9084C62.1428 24.5159 62.0032 24.0579 62.0032 23.5345H63.5996C63.6345 23.927 63.7872 24.2498 64.0576 24.5028C64.3367 24.7558 64.7249 24.8823 65.2222 24.8823C65.7369 24.8823 66.1382 24.7601 66.426 24.5159C66.7139 24.2629 66.8579 23.9401 66.8579 23.5476C66.8579 23.2422 66.7663 22.9936 66.5831 22.8017C66.4086 22.6098 66.1861 22.4615 65.9157 22.3568C65.654 22.2521 65.2876 22.1387 64.8165 22.0166C64.2233 21.8596 63.7392 21.7025 63.3641 21.5455C62.9977 21.3798 62.6836 21.1268 62.4219 20.7866C62.1602 20.4463 62.0294 19.9927 62.0294 19.4257C62.0294 18.9023 62.1602 18.4443 62.4219 18.0517C62.6836 17.6592 63.05 17.3582 63.5211 17.1488C63.9922 16.9395 64.5374 16.8348 65.1568 16.8348C66.0378 16.8348 66.7575 17.0572 67.3158 17.5021C67.8829 17.9383 68.1969 18.5402 68.258 19.3079H66.6092C66.5831 18.9764 66.426 18.6929 66.1382 18.4574C65.8503 18.2218 65.4708 18.1041 64.9997 18.1041C64.5723 18.1041 64.2233 18.2131 63.9529 18.4312C63.6825 18.6493 63.5473 18.9633 63.5473 19.3733C63.5473 19.6525 63.6301 19.8837 63.7959 20.0669C63.9704 20.2413 64.1884 20.3809 64.4502 20.4856C64.7119 20.5903 65.0695 20.7037 65.5232 20.8258C66.1251 20.9916 66.6136 21.1573 66.9887 21.3231C67.3725 21.4888 67.6953 21.7462 67.957 22.0951C68.2275 22.4353 68.3627 22.8933 68.3627 23.4691C68.3627 23.9314 68.2362 24.3676 67.9832 24.7776C67.7389 25.1876 67.3769 25.5191 66.8971 25.7721C66.426 26.0163 65.8677 26.1385 65.2222 26.1385ZM71.8632 20.0538V24.0448C71.8632 24.3152 71.9243 24.5115 72.0464 24.6337C72.1773 24.7471 72.3953 24.8038 72.7007 24.8038H73.6166V26.0469H72.439C71.7672 26.0469 71.2526 25.8899 70.8949 25.5758C70.5372 25.2618 70.3584 24.7514 70.3584 24.0448V20.0538H69.5078V18.8368H70.3584V17.0442H71.8632V18.8368H73.6166V20.0538H71.8632ZM78.1189 26.1646C77.4385 26.1646 76.8235 26.012 76.2739 25.7067C75.7243 25.3926 75.2925 24.9564 74.9784 24.3981C74.6644 23.8311 74.5074 23.1768 74.5074 22.4353C74.5074 21.7025 74.6688 21.0526 74.9915 20.4856C75.3143 19.9186 75.7548 19.4824 76.3131 19.1771C76.8715 18.8717 77.4952 18.7191 78.1844 18.7191C78.8735 18.7191 79.4972 18.8717 80.0556 19.1771C80.6139 19.4824 81.0544 19.9186 81.3772 20.4856C81.6999 21.0526 81.8613 21.7025 81.8613 22.4353C81.8613 23.1681 81.6956 23.818 81.3641 24.385C81.0326 24.9521 80.579 25.3926 80.0032 25.7067C79.4362 26.012 78.8081 26.1646 78.1189 26.1646ZM78.1189 24.8692C78.5028 24.8692 78.8604 24.7776 79.1919 24.5944C79.5321 24.4112 79.8069 24.1364 80.0163 23.77C80.2257 23.4036 80.3303 22.9587 80.3303 22.4353C80.3303 21.9119 80.23 21.4714 80.0294 21.1137C79.8287 20.7473 79.5627 20.4725 79.2312 20.2893C78.8997 20.1061 78.542 20.0145 78.1582 20.0145C77.7743 20.0145 77.4167 20.1061 77.0852 20.2893C76.7624 20.4725 76.5051 20.7473 76.3131 21.1137C76.1212 21.4714 76.0253 21.9119 76.0253 22.4353C76.0253 23.2117 76.2215 23.8136 76.6141 24.2411C77.0154 24.6598 77.517 24.8692 78.1189 24.8692ZM84.8277 19.8837C85.0458 19.5173 85.3337 19.2338 85.6914 19.0331C86.0577 18.8238 86.4896 18.7191 86.9868 18.7191V20.2632H86.6073C86.0228 20.2632 85.5779 20.4115 85.2726 20.7081C84.976 21.0047 84.8277 21.5193 84.8277 22.2521V26.0469H83.336V18.8368H84.8277V19.8837ZM94.9661 22.2652C94.9661 22.5356 94.9487 22.7799 94.9138 22.998H89.4048C89.4484 23.5737 89.6622 24.0361 90.046 24.385C90.4299 24.734 90.9009 24.9084 91.4592 24.9084C92.2618 24.9084 92.8288 24.5726 93.1603 23.9009H94.7698C94.5517 24.5639 94.1548 25.1091 93.5791 25.5365C93.012 25.9553 92.3054 26.1646 91.4592 26.1646C90.7701 26.1646 90.1507 26.012 89.6011 25.7067C89.0603 25.3926 88.6328 24.9564 88.3187 24.3981C88.0134 23.8311 87.8608 23.1768 87.8608 22.4353C87.8608 21.6938 88.0091 21.0439 88.3057 20.4856C88.611 19.9186 89.0341 19.4824 89.5749 19.1771C90.1245 18.8717 90.7526 18.7191 91.4592 18.7191C92.1397 18.7191 92.746 18.8674 93.2781 19.164C93.8102 19.4606 94.2246 19.8793 94.5212 20.4202C94.8178 20.9523 94.9661 21.5673 94.9661 22.2652ZM93.4089 21.7941C93.4002 21.2446 93.2039 20.804 92.8201 20.4725C92.4363 20.141 91.9608 19.9753 91.3938 19.9753C90.8791 19.9753 90.4386 20.141 90.0722 20.4725C89.7058 20.7953 89.4877 21.2358 89.4179 21.7941H93.4089Z" fill="white"/>
<g clip-path="url(#clip0_1_936)">
<path fill-rule="evenodd" clip-rule="evenodd" d="M16.5841 7.82736C17.985 6.00897 19.9321 6 19.9321 6C19.9321 6 20.2218 7.70972 18.8304 9.35701C17.3444 11.1157 15.6557 10.828 15.6557 10.828C15.6557 10.828 15.3387 9.44498 16.5841 7.82771V7.82736Z" fill="white"/>
<path fill-rule="evenodd" clip-rule="evenodd" d="M15.8365 12.0255C16.5572 12.0255 17.8943 11.0499 19.6352 11.0499C22.6317 11.0499 23.8105 13.1501 23.8105 13.1501C23.8105 13.1501 21.505 14.3113 21.505 17.1288C21.505 20.3071 24.3771 21.4024 24.3771 21.4024C24.3771 21.4024 22.3693 26.969 19.6576 26.969C18.4119 26.969 17.4439 26.1421 16.1314 26.1421C14.8188 26.1421 13.4669 26.9997 12.6026 26.9997C10.1263 27 6.9978 21.7198 6.9978 17.4751C6.9978 13.2305 9.64576 11.1085 12.1295 11.1085C13.744 11.1085 14.997 12.0258 15.8365 12.0258V12.0255Z" fill="white"/>
</g>
<defs>
<clipPath id="clip0_1_936">
<rect width="17.3793" height="21" fill="white" transform="translate(7 6)"/>
</clipPath>
</defs>
</svg>
