<svg width="375" height="227" viewBox="0 0 375 227" fill="none" xmlns="http://www.w3.org/2000/svg">
<rect width="375" height="227" rx="9.86865" fill="white"/>
<path d="M178.336 52.378C178.636 51.91 179.05 51.532 179.578 51.244C180.106 50.956 180.724 50.812 181.432 50.812C182.26 50.812 183.01 51.022 183.682 51.442C184.354 51.862 184.882 52.462 185.266 53.242C185.662 54.022 185.86 54.928 185.86 55.96C185.86 56.992 185.662 57.904 185.266 58.696C184.882 59.476 184.354 60.082 183.682 60.514C183.01 60.934 182.26 61.144 181.432 61.144C180.736 61.144 180.118 61 179.578 60.712C179.05 60.424 178.636 60.052 178.336 59.596V65.788H175.258V50.956H178.336V52.378ZM182.728 55.96C182.728 55.192 182.512 54.592 182.08 54.16C181.66 53.716 181.138 53.494 180.514 53.494C179.902 53.494 179.38 53.716 178.948 54.16C178.528 54.604 178.318 55.21 178.318 55.978C178.318 56.746 178.528 57.352 178.948 57.796C179.38 58.24 179.902 58.462 180.514 58.462C181.126 58.462 181.648 58.24 182.08 57.796C182.512 57.34 182.728 56.728 182.728 55.96ZM193.648 50.848C194.8 50.848 195.724 51.232 196.42 52C197.116 52.756 197.464 53.8 197.464 55.132V61H194.404V55.546C194.404 54.874 194.23 54.352 193.882 53.98C193.534 53.608 193.066 53.422 192.478 53.422C191.89 53.422 191.422 53.608 191.074 53.98C190.726 54.352 190.552 54.874 190.552 55.546V61H187.474V47.68H190.552V52.306C190.864 51.862 191.29 51.508 191.83 51.244C192.37 50.98 192.976 50.848 193.648 50.848ZM204.175 61.144C203.191 61.144 202.303 60.934 201.511 60.514C200.731 60.094 200.113 59.494 199.657 58.714C199.213 57.934 198.991 57.022 198.991 55.978C198.991 54.946 199.219 54.04 199.675 53.26C200.131 52.468 200.755 51.862 201.547 51.442C202.339 51.022 203.227 50.812 204.211 50.812C205.195 50.812 206.083 51.022 206.875 51.442C207.667 51.862 208.291 52.468 208.747 53.26C209.203 54.04 209.431 54.946 209.431 55.978C209.431 57.01 209.197 57.922 208.729 58.714C208.273 59.494 207.643 60.094 206.839 60.514C206.047 60.934 205.159 61.144 204.175 61.144ZM204.175 58.48C204.763 58.48 205.261 58.264 205.669 57.832C206.089 57.4 206.299 56.782 206.299 55.978C206.299 55.174 206.095 54.556 205.687 54.124C205.291 53.692 204.799 53.476 204.211 53.476C203.611 53.476 203.113 53.692 202.717 54.124C202.321 54.544 202.123 55.162 202.123 55.978C202.123 56.782 202.315 57.4 202.699 57.832C203.095 58.264 203.587 58.48 204.175 58.48ZM217.184 50.848C218.36 50.848 219.296 51.232 219.992 52C220.7 52.756 221.054 53.8 221.054 55.132V61H217.994V55.546C217.994 54.874 217.82 54.352 217.472 53.98C217.124 53.608 216.656 53.422 216.068 53.422C215.48 53.422 215.012 53.608 214.664 53.98C214.316 54.352 214.142 54.874 214.142 55.546V61H211.064V50.956H214.142V52.288C214.454 51.844 214.874 51.496 215.402 51.244C215.93 50.98 216.524 50.848 217.184 50.848ZM232.661 55.816C232.661 56.104 232.643 56.404 232.607 56.716H225.641C225.689 57.34 225.887 57.82 226.235 58.156C226.595 58.48 227.033 58.642 227.549 58.642C228.317 58.642 228.851 58.318 229.151 57.67H232.427C232.259 58.33 231.953 58.924 231.509 59.452C231.077 59.98 230.531 60.394 229.871 60.694C229.211 60.994 228.473 61.144 227.657 61.144C226.673 61.144 225.797 60.934 225.029 60.514C224.261 60.094 223.661 59.494 223.229 58.714C222.797 57.934 222.581 57.022 222.581 55.978C222.581 54.934 222.791 54.022 223.211 53.242C223.643 52.462 224.243 51.862 225.011 51.442C225.779 51.022 226.661 50.812 227.657 50.812C228.629 50.812 229.493 51.016 230.249 51.424C231.005 51.832 231.593 52.414 232.013 53.17C232.445 53.926 232.661 54.808 232.661 55.816ZM229.511 55.006C229.511 54.478 229.331 54.058 228.971 53.746C228.611 53.434 228.161 53.278 227.621 53.278C227.105 53.278 226.667 53.428 226.307 53.728C225.959 54.028 225.743 54.454 225.659 55.006H229.511ZM241.177 47.68V61H238.099V47.68H241.177ZM244.956 49.912C244.416 49.912 243.972 49.756 243.624 49.444C243.288 49.12 243.12 48.724 243.12 48.256C243.12 47.776 243.288 47.38 243.624 47.068C243.972 46.744 244.416 46.582 244.956 46.582C245.484 46.582 245.916 46.744 246.252 47.068C246.6 47.38 246.774 47.776 246.774 48.256C246.774 48.724 246.6 49.12 246.252 49.444C245.916 49.756 245.484 49.912 244.956 49.912ZM246.486 50.956V61H243.408V50.956H246.486ZM254.837 50.848C256.013 50.848 256.949 51.232 257.645 52C258.353 52.756 258.707 53.8 258.707 55.132V61H255.647V55.546C255.647 54.874 255.473 54.352 255.125 53.98C254.777 53.608 254.309 53.422 253.721 53.422C253.133 53.422 252.665 53.608 252.317 53.98C251.969 54.352 251.795 54.874 251.795 55.546V61H248.717V50.956H251.795V52.288C252.107 51.844 252.527 51.496 253.055 51.244C253.583 50.98 254.177 50.848 254.837 50.848ZM270.313 55.816C270.313 56.104 270.295 56.404 270.259 56.716H263.293C263.341 57.34 263.539 57.82 263.887 58.156C264.247 58.48 264.685 58.642 265.201 58.642C265.969 58.642 266.503 58.318 266.803 57.67H270.079C269.911 58.33 269.605 58.924 269.161 59.452C268.729 59.98 268.183 60.394 267.523 60.694C266.863 60.994 266.125 61.144 265.309 61.144C264.325 61.144 263.449 60.934 262.681 60.514C261.913 60.094 261.313 59.494 260.881 58.714C260.449 57.934 260.233 57.022 260.233 55.978C260.233 54.934 260.443 54.022 260.863 53.242C261.295 52.462 261.895 51.862 262.663 51.442C263.431 51.022 264.313 50.812 265.309 50.812C266.281 50.812 267.145 51.016 267.901 51.424C268.657 51.832 269.245 52.414 269.665 53.17C270.097 53.926 270.313 54.808 270.313 55.816ZM267.163 55.006C267.163 54.478 266.983 54.058 266.623 53.746C266.263 53.434 265.813 53.278 265.273 53.278C264.757 53.278 264.319 53.428 263.959 53.728C263.611 54.028 263.395 54.454 263.311 55.006H267.163ZM276.023 61.144C275.147 61.144 274.367 60.994 273.683 60.694C272.999 60.394 272.459 59.986 272.063 59.47C271.667 58.942 271.445 58.354 271.397 57.706H274.439C274.475 58.054 274.637 58.336 274.925 58.552C275.213 58.768 275.567 58.876 275.987 58.876C276.371 58.876 276.665 58.804 276.869 58.66C277.085 58.504 277.193 58.306 277.193 58.066C277.193 57.778 277.043 57.568 276.743 57.436C276.443 57.292 275.957 57.136 275.285 56.968C274.565 56.8 273.965 56.626 273.485 56.446C273.005 56.254 272.591 55.96 272.243 55.564C271.895 55.156 271.721 54.61 271.721 53.926C271.721 53.35 271.877 52.828 272.189 52.36C272.513 51.88 272.981 51.502 273.593 51.226C274.217 50.95 274.955 50.812 275.807 50.812C277.067 50.812 278.057 51.124 278.777 51.748C279.509 52.372 279.929 53.2 280.037 54.232H277.193C277.145 53.884 276.989 53.608 276.725 53.404C276.473 53.2 276.137 53.098 275.717 53.098C275.357 53.098 275.081 53.17 274.889 53.314C274.697 53.446 274.601 53.632 274.601 53.872C274.601 54.16 274.751 54.376 275.051 54.52C275.363 54.664 275.843 54.808 276.491 54.952C277.235 55.144 277.841 55.336 278.309 55.528C278.777 55.708 279.185 56.008 279.533 56.428C279.893 56.836 280.079 57.388 280.091 58.084C280.091 58.672 279.923 59.2 279.587 59.668C279.263 60.124 278.789 60.484 278.165 60.748C277.553 61.012 276.839 61.144 276.023 61.144Z" fill="#0077C8"/>
<path d="M95 46.293H98.3508V60.6508H95V46.293Z" fill="#0077C8"/>
<path d="M110.97 57.2749C110.424 58.4779 109.637 59.4096 108.689 60.0307C107.761 60.6714 106.65 61.0016 105.499 61.0016C102.289 61.0016 99.5625 58.499 99.5625 55.297C99.5625 52.2895 102.025 49.5156 105.437 49.5156C108.849 49.5156 111.353 52.1161 111.353 55.395C111.353 55.8217 111.312 55.9965 111.273 56.2483H102.874C103.076 57.5297 104.187 58.285 105.499 58.285C106.528 58.285 107.074 57.8387 107.538 57.2764H110.97V57.2749ZM108.002 54.0729C107.861 53.4322 107.194 52.2292 105.458 52.2292C103.721 52.2292 103.056 53.4322 102.913 54.0729H108.001H108.002Z" fill="#0077C8"/>
<path d="M118.561 60.6512H115.351L111.332 49.8828H114.805L116.945 56.5959H116.986L119.125 49.8828H122.599L118.561 60.6512Z" fill="#0077C8"/>
<path d="M133.947 57.2749C133.401 58.4779 132.613 59.4096 131.666 60.0307C130.737 60.6714 129.627 61.0016 128.475 61.0016C125.266 61.0016 122.539 58.499 122.539 55.297C122.539 52.2895 125.002 49.5156 128.414 49.5156C131.826 49.5156 134.33 52.1161 134.33 55.395C134.33 55.8217 134.289 55.9965 134.25 56.2483H125.851C126.053 57.5297 127.164 58.285 128.475 58.285C129.504 58.285 130.05 57.8387 130.514 57.2764H133.947V57.2749ZM130.979 54.0729C130.838 53.4322 130.171 52.2292 128.434 52.2292C126.698 52.2292 126.033 53.4322 125.89 54.0729H130.977H130.979Z" fill="#0077C8"/>
<path d="M135.586 46.293H138.937V60.6508H135.586V46.293Z" fill="#0077C8"/>
<path d="M155.008 57.1375H151.837V55.9933H151.797C151.109 57.3712 149.737 57.4872 148.89 57.4872C148.203 57.4872 146.588 57.332 145.599 56.1289C144.711 55.0616 144.59 54.2852 144.59 52.8108V46.3691H147.941V52.3254C147.941 53.0626 147.941 54.4797 149.738 54.4797C150.708 54.4797 151.657 53.9943 151.657 52.2877V46.3691H155.008V57.1375Z" fill="#0077C8"/>
<path d="M156.824 46.3693H159.974V47.5528H160.035C160.702 46.7372 161.811 46 163.529 46C167.507 46 169.001 49.3573 169.001 51.8598C169.001 54.9638 166.74 57.5055 163.549 57.5055C161.53 57.5055 160.581 56.5739 160.178 56.1668V60.7271H156.827V46.3693H156.824ZM165.647 51.7633C165.647 50.4819 164.677 49.0075 162.84 49.0075C161.003 49.0075 160.034 50.4819 160.034 51.7633C160.034 53.1216 161.083 54.4995 162.84 54.4995C164.597 54.4995 165.647 53.1216 165.647 51.7633Z" fill="#0077C8"/>
<g filter="url(#filter0_dd_1835_41944)">
<rect x="67" y="86" width="40.5451" height="85.9557" rx="2.59489" fill="white"/>
</g>
<g filter="url(#filter1_dd_1835_41944)">
<rect x="67" y="86" width="40.5451" height="85.9557" rx="2.59489" fill="white"/>
</g>
<path d="M67 94.1096H107.545V88.5955C107.545 87.1624 106.383 86.0006 104.95 86.0006H69.5949C68.1618 86.0006 67 87.1624 67 88.5955V94.1096Z" fill="#3392D3"/>
<path opacity="0.25" d="M67 169.362C67 170.795 68.1618 171.956 69.5949 171.956H104.95C106.383 171.956 107.545 170.795 107.545 169.362V161.739H67V169.362Z" fill="url(#paint0_linear_1835_41944)"/>
<circle cx="87.3083" cy="158.657" r="8.14421" fill="#3392D3"/>
<path d="M86.6888 163.299H88.7861V154.697H85.5223V156.571H86.6888V163.299Z" fill="white"/>
<path d="M72.6758 102.618H89.2182" stroke="#E0E0E0" stroke-width="0.810903" stroke-linecap="round"/>
<path d="M72.6758 116.891H89.2182" stroke="#E0E0E0" stroke-width="0.810903" stroke-linecap="round"/>
<path d="M72.6758 131.488H89.2182" stroke="#E0E0E0" stroke-width="0.810903" stroke-linecap="round"/>
<path d="M72.6758 108.944H95.3811" stroke="#E0E0E0" stroke-width="0.810903" stroke-linecap="round"/>
<path d="M72.6758 123.216H95.3811" stroke="#E0E0E0" stroke-width="0.810903" stroke-linecap="round"/>
<path d="M72.6758 137.813H95.3811" stroke="#E0E0E0" stroke-width="0.810903" stroke-linecap="round"/>
<g filter="url(#filter2_dd_1835_41944)">
<rect x="117.363" y="86" width="40.5451" height="88.3884" rx="2.59489" fill="white"/>
</g>
<g filter="url(#filter3_dd_1835_41944)">
<rect x="117.363" y="86" width="40.5451" height="88.3884" rx="2.59489" fill="white"/>
</g>
<path d="M117.363 94.1096H157.908V88.5955C157.908 87.1624 156.747 86.0006 155.314 86.0006H119.958C118.525 86.0006 117.363 87.1624 117.363 88.5955V94.1096Z" fill="#1985CE"/>
<path opacity="0.25" d="M117.363 171.794C117.363 173.227 118.525 174.389 119.958 174.389H155.314C156.747 174.389 157.908 173.227 157.908 171.794V161.739H117.363V171.794Z" fill="url(#paint1_linear_1835_41944)"/>
<circle cx="137.672" cy="161.092" r="8.14421" fill="#1985CE"/>
<path d="M134.874 165.616H140.789V163.978H137.608C138.975 162.929 140.66 161.421 140.66 159.536C140.66 158.087 139.788 156.944 137.832 156.944C136.265 156.944 134.91 157.839 134.851 159.925H136.795C136.795 159.112 137.148 158.64 137.749 158.64C138.362 158.64 138.645 159.041 138.645 159.665C138.645 161.115 136.701 162.611 134.874 164.119V165.616Z" fill="white"/>
<path d="M122.879 102.62H139.421" stroke="#E0E0E0" stroke-width="0.810903" stroke-linecap="round"/>
<path d="M122.879 116.891H139.421" stroke="#E0E0E0" stroke-width="0.810903" stroke-linecap="round"/>
<path d="M122.879 131.488H139.421" stroke="#E0E0E0" stroke-width="0.810903" stroke-linecap="round"/>
<path d="M122.879 108.944H145.584" stroke="#E0E0E0" stroke-width="0.810903" stroke-linecap="round"/>
<path d="M122.879 123.216H145.584" stroke="#E0E0E0" stroke-width="0.810903" stroke-linecap="round"/>
<path d="M122.879 137.813H145.584" stroke="#E0E0E0" stroke-width="0.810903" stroke-linecap="round"/>
<g filter="url(#filter4_dd_1835_41944)">
<rect x="167.727" y="86" width="40.5451" height="90.8211" rx="2.59489" fill="white"/>
</g>
<g filter="url(#filter5_dd_1835_41944)">
<rect x="167.727" y="86" width="40.5451" height="90.8211" rx="2.59489" fill="white"/>
</g>
<path d="M167.727 94.1096H208.272V88.5955C208.272 87.1624 207.11 86.0006 205.677 86.0006H170.321C168.888 86.0006 167.727 87.1624 167.727 88.5955V94.1096Z" fill="#0077C8"/>
<path opacity="0.25" d="M167.727 174.227C167.727 175.66 168.888 176.822 170.321 176.822H205.677C207.11 176.822 208.272 175.66 208.272 174.227V161.739H167.727V174.227Z" fill="url(#paint2_linear_1835_41944)"/>
<circle cx="188" cy="164.336" r="8.14421" fill="#0077C8"/>
<path d="M185.002 162.803H186.969C187.005 162.332 187.24 161.86 187.888 161.86C188.43 161.86 188.772 162.178 188.772 162.756C188.772 163.533 188.112 163.698 187.429 163.698H187.052V165.336H187.429C188.477 165.336 188.937 165.642 188.937 166.408C188.937 166.974 188.595 167.375 187.971 167.375C187.228 167.375 186.863 166.927 186.851 166.255H184.896C184.954 168.199 186.251 169.048 188.041 169.048C189.844 169.048 190.881 168.011 190.881 166.562C190.881 165.43 190.292 164.771 189.432 164.488V164.441C190.021 164.24 190.728 163.639 190.728 162.508C190.728 161.212 189.75 160.175 187.935 160.175C186.18 160.175 185.072 161.106 185.002 162.803Z" fill="white"/>
<path d="M173.402 102.618H189.945" stroke="#E0E0E0" stroke-width="0.810903" stroke-linecap="round"/>
<path d="M173.402 116.891H189.945" stroke="#E0E0E0" stroke-width="0.810903" stroke-linecap="round"/>
<path d="M173.402 131.488H189.945" stroke="#E0E0E0" stroke-width="0.810903" stroke-linecap="round"/>
<path d="M173.402 108.944H196.108" stroke="#E0E0E0" stroke-width="0.810903" stroke-linecap="round"/>
<path d="M173.402 123.218H196.108" stroke="#E0E0E0" stroke-width="0.810903" stroke-linecap="round"/>
<path d="M173.402 137.813H196.108" stroke="#E0E0E0" stroke-width="0.810903" stroke-linecap="round"/>
<g filter="url(#filter6_dd_1835_41944)">
<rect x="218.09" y="86" width="40.5451" height="93.2538" rx="2.59489" fill="white"/>
</g>
<g filter="url(#filter7_dd_1835_41944)">
<rect x="218.09" y="86" width="40.5451" height="93.2538" rx="2.59489" fill="white"/>
</g>
<path d="M218.09 94.1096H258.635V88.5955C258.635 87.1624 257.473 86.0006 256.04 86.0006H220.685C219.252 86.0006 218.09 87.1624 218.09 88.5955V94.1096Z" fill="#006BB4"/>
<path opacity="0.25" d="M218.09 176.659C218.09 178.092 219.252 179.254 220.685 179.254H256.04C257.473 179.254 258.635 178.092 258.635 176.659V161.739H218.09V176.659Z" fill="url(#paint3_linear_1835_41944)"/>
<circle cx="238.398" cy="166.281" r="8.14421" fill="#006BB4"/>
<path d="M238.497 170.922H240.512V169.39H241.478V167.646H240.512V162.438H238.262L234.538 167.764V169.39H238.497V170.922ZM236.659 167.646L238.639 164.653V167.646H236.659Z" fill="white"/>
<path d="M223.766 102.618H240.308" stroke="#E0E0E0" stroke-width="0.810903" stroke-linecap="round"/>
<path d="M223.766 116.891H240.308" stroke="#E0E0E0" stroke-width="0.810903" stroke-linecap="round"/>
<path d="M223.766 131.487H240.308" stroke="#E0E0E0" stroke-width="0.810903" stroke-linecap="round"/>
<path d="M223.766 108.944H246.471" stroke="#E0E0E0" stroke-width="0.810903" stroke-linecap="round"/>
<path d="M223.766 123.216H246.471" stroke="#E0E0E0" stroke-width="0.810903" stroke-linecap="round"/>
<path d="M223.766 137.813H246.471" stroke="#E0E0E0" stroke-width="0.810903" stroke-linecap="round"/>
<g filter="url(#filter8_dd_1835_41944)">
<rect x="268.453" y="86" width="40.5451" height="95.6865" rx="2.59489" fill="white"/>
</g>
<g filter="url(#filter9_dd_1835_41944)">
<rect x="268.453" y="86" width="40.5451" height="95.6865" rx="2.59489" fill="white"/>
</g>
<path d="M268.453 94.1096H308.998V88.5955C308.998 87.1624 307.836 86.0006 306.403 86.0006H271.048C269.615 86.0006 268.453 87.1624 268.453 88.5955V94.1096Z" fill="#006BB4"/>
<path opacity="0.25" d="M268.453 179.092C268.453 180.525 269.615 181.687 271.048 181.687H306.403C307.836 181.687 308.998 180.525 308.998 179.092V161.738H268.453V179.092Z" fill="url(#paint4_linear_1835_41944)"/>
<circle cx="288.761" cy="168.714" r="8.14421" fill="#006BB4"/>
<path d="M286.308 164.314V169.099H288.124C288.223 168.725 288.531 168.439 289.059 168.439C289.73 168.439 290.093 168.824 290.093 169.55C290.093 170.243 289.785 170.76 289.07 170.76C288.454 170.76 288.135 170.386 288.058 169.968H286.22C286.286 171.354 287.331 172.355 289.136 172.355C290.918 172.355 291.908 171.255 291.908 169.561C291.908 168.263 291.237 166.932 289.488 166.932C288.85 166.932 288.3 167.163 288.014 167.482V165.964H291.446V164.314H286.308Z" fill="white"/>
<path d="M274.129 102.618H290.671" stroke="#E0E0E0" stroke-width="0.810903" stroke-linecap="round"/>
<path d="M274.129 116.891H290.671" stroke="#E0E0E0" stroke-width="0.810903" stroke-linecap="round"/>
<path d="M274.129 131.488H290.671" stroke="#E0E0E0" stroke-width="0.810903" stroke-linecap="round"/>
<path d="M274.129 108.944H296.834" stroke="#E0E0E0" stroke-width="0.810903" stroke-linecap="round"/>
<path d="M274.129 123.216H296.834" stroke="#E0E0E0" stroke-width="0.810903" stroke-linecap="round"/>
<path d="M274.129 137.813H296.834" stroke="#E0E0E0" stroke-width="0.810903" stroke-linecap="round"/>
<defs>
<filter id="filter0_dd_1835_41944" x="65.7026" y="85.3513" width="43.1401" height="88.5506" filterUnits="userSpaceOnUse" color-interpolation-filters="sRGB">
<feFlood flood-opacity="0" result="BackgroundImageFix"/>
<feColorMatrix in="SourceAlpha" type="matrix" values="0 0 0 0 0 0 0 0 0 0 0 0 0 0 0 0 0 0 127 0" result="hardAlpha"/>
<feOffset dy="0.648722"/>
<feGaussianBlur stdDeviation="0.648722"/>
<feColorMatrix type="matrix" values="0 0 0 0 0 0 0 0 0 0 0 0 0 0 0 0 0 0 0.16 0"/>
<feBlend mode="normal" in2="BackgroundImageFix" result="effect1_dropShadow_1835_41944"/>
<feColorMatrix in="SourceAlpha" type="matrix" values="0 0 0 0 0 0 0 0 0 0 0 0 0 0 0 0 0 0 127 0" result="hardAlpha"/>
<feOffset/>
<feGaussianBlur stdDeviation="0.162181"/>
<feColorMatrix type="matrix" values="0 0 0 0 0 0 0 0 0 0 0 0 0 0 0 0 0 0 0.04 0"/>
<feBlend mode="normal" in2="effect1_dropShadow_1835_41944" result="effect2_dropShadow_1835_41944"/>
<feBlend mode="normal" in="SourceGraphic" in2="effect2_dropShadow_1835_41944" result="shape"/>
</filter>
<filter id="filter1_dd_1835_41944" x="65.7026" y="85.3513" width="43.1401" height="88.5506" filterUnits="userSpaceOnUse" color-interpolation-filters="sRGB">
<feFlood flood-opacity="0" result="BackgroundImageFix"/>
<feColorMatrix in="SourceAlpha" type="matrix" values="0 0 0 0 0 0 0 0 0 0 0 0 0 0 0 0 0 0 127 0" result="hardAlpha"/>
<feOffset dy="0.648722"/>
<feGaussianBlur stdDeviation="0.648722"/>
<feColorMatrix type="matrix" values="0 0 0 0 0 0 0 0 0 0 0 0 0 0 0 0 0 0 0.16 0"/>
<feBlend mode="normal" in2="BackgroundImageFix" result="effect1_dropShadow_1835_41944"/>
<feColorMatrix in="SourceAlpha" type="matrix" values="0 0 0 0 0 0 0 0 0 0 0 0 0 0 0 0 0 0 127 0" result="hardAlpha"/>
<feOffset/>
<feGaussianBlur stdDeviation="0.162181"/>
<feColorMatrix type="matrix" values="0 0 0 0 0 0 0 0 0 0 0 0 0 0 0 0 0 0 0.04 0"/>
<feBlend mode="normal" in2="effect1_dropShadow_1835_41944" result="effect2_dropShadow_1835_41944"/>
<feBlend mode="normal" in="SourceGraphic" in2="effect2_dropShadow_1835_41944" result="shape"/>
</filter>
<filter id="filter2_dd_1835_41944" x="116.066" y="85.3513" width="43.1401" height="90.9833" filterUnits="userSpaceOnUse" color-interpolation-filters="sRGB">
<feFlood flood-opacity="0" result="BackgroundImageFix"/>
<feColorMatrix in="SourceAlpha" type="matrix" values="0 0 0 0 0 0 0 0 0 0 0 0 0 0 0 0 0 0 127 0" result="hardAlpha"/>
<feOffset dy="0.648722"/>
<feGaussianBlur stdDeviation="0.648722"/>
<feColorMatrix type="matrix" values="0 0 0 0 0 0 0 0 0 0 0 0 0 0 0 0 0 0 0.16 0"/>
<feBlend mode="normal" in2="BackgroundImageFix" result="effect1_dropShadow_1835_41944"/>
<feColorMatrix in="SourceAlpha" type="matrix" values="0 0 0 0 0 0 0 0 0 0 0 0 0 0 0 0 0 0 127 0" result="hardAlpha"/>
<feOffset/>
<feGaussianBlur stdDeviation="0.162181"/>
<feColorMatrix type="matrix" values="0 0 0 0 0 0 0 0 0 0 0 0 0 0 0 0 0 0 0.04 0"/>
<feBlend mode="normal" in2="effect1_dropShadow_1835_41944" result="effect2_dropShadow_1835_41944"/>
<feBlend mode="normal" in="SourceGraphic" in2="effect2_dropShadow_1835_41944" result="shape"/>
</filter>
<filter id="filter3_dd_1835_41944" x="116.066" y="85.3513" width="43.1401" height="90.9833" filterUnits="userSpaceOnUse" color-interpolation-filters="sRGB">
<feFlood flood-opacity="0" result="BackgroundImageFix"/>
<feColorMatrix in="SourceAlpha" type="matrix" values="0 0 0 0 0 0 0 0 0 0 0 0 0 0 0 0 0 0 127 0" result="hardAlpha"/>
<feOffset dy="0.648722"/>
<feGaussianBlur stdDeviation="0.648722"/>
<feColorMatrix type="matrix" values="0 0 0 0 0 0 0 0 0 0 0 0 0 0 0 0 0 0 0.16 0"/>
<feBlend mode="normal" in2="BackgroundImageFix" result="effect1_dropShadow_1835_41944"/>
<feColorMatrix in="SourceAlpha" type="matrix" values="0 0 0 0 0 0 0 0 0 0 0 0 0 0 0 0 0 0 127 0" result="hardAlpha"/>
<feOffset/>
<feGaussianBlur stdDeviation="0.162181"/>
<feColorMatrix type="matrix" values="0 0 0 0 0 0 0 0 0 0 0 0 0 0 0 0 0 0 0.04 0"/>
<feBlend mode="normal" in2="effect1_dropShadow_1835_41944" result="effect2_dropShadow_1835_41944"/>
<feBlend mode="normal" in="SourceGraphic" in2="effect2_dropShadow_1835_41944" result="shape"/>
</filter>
<filter id="filter4_dd_1835_41944" x="166.429" y="85.3513" width="43.1401" height="93.416" filterUnits="userSpaceOnUse" color-interpolation-filters="sRGB">
<feFlood flood-opacity="0" result="BackgroundImageFix"/>
<feColorMatrix in="SourceAlpha" type="matrix" values="0 0 0 0 0 0 0 0 0 0 0 0 0 0 0 0 0 0 127 0" result="hardAlpha"/>
<feOffset dy="0.648722"/>
<feGaussianBlur stdDeviation="0.648722"/>
<feColorMatrix type="matrix" values="0 0 0 0 0 0 0 0 0 0 0 0 0 0 0 0 0 0 0.16 0"/>
<feBlend mode="normal" in2="BackgroundImageFix" result="effect1_dropShadow_1835_41944"/>
<feColorMatrix in="SourceAlpha" type="matrix" values="0 0 0 0 0 0 0 0 0 0 0 0 0 0 0 0 0 0 127 0" result="hardAlpha"/>
<feOffset/>
<feGaussianBlur stdDeviation="0.162181"/>
<feColorMatrix type="matrix" values="0 0 0 0 0 0 0 0 0 0 0 0 0 0 0 0 0 0 0.04 0"/>
<feBlend mode="normal" in2="effect1_dropShadow_1835_41944" result="effect2_dropShadow_1835_41944"/>
<feBlend mode="normal" in="SourceGraphic" in2="effect2_dropShadow_1835_41944" result="shape"/>
</filter>
<filter id="filter5_dd_1835_41944" x="166.429" y="85.3513" width="43.1401" height="93.416" filterUnits="userSpaceOnUse" color-interpolation-filters="sRGB">
<feFlood flood-opacity="0" result="BackgroundImageFix"/>
<feColorMatrix in="SourceAlpha" type="matrix" values="0 0 0 0 0 0 0 0 0 0 0 0 0 0 0 0 0 0 127 0" result="hardAlpha"/>
<feOffset dy="0.648722"/>
<feGaussianBlur stdDeviation="0.648722"/>
<feColorMatrix type="matrix" values="0 0 0 0 0 0 0 0 0 0 0 0 0 0 0 0 0 0 0.16 0"/>
<feBlend mode="normal" in2="BackgroundImageFix" result="effect1_dropShadow_1835_41944"/>
<feColorMatrix in="SourceAlpha" type="matrix" values="0 0 0 0 0 0 0 0 0 0 0 0 0 0 0 0 0 0 127 0" result="hardAlpha"/>
<feOffset/>
<feGaussianBlur stdDeviation="0.162181"/>
<feColorMatrix type="matrix" values="0 0 0 0 0 0 0 0 0 0 0 0 0 0 0 0 0 0 0.04 0"/>
<feBlend mode="normal" in2="effect1_dropShadow_1835_41944" result="effect2_dropShadow_1835_41944"/>
<feBlend mode="normal" in="SourceGraphic" in2="effect2_dropShadow_1835_41944" result="shape"/>
</filter>
<filter id="filter6_dd_1835_41944" x="216.792" y="85.3513" width="43.1401" height="95.8487" filterUnits="userSpaceOnUse" color-interpolation-filters="sRGB">
<feFlood flood-opacity="0" result="BackgroundImageFix"/>
<feColorMatrix in="SourceAlpha" type="matrix" values="0 0 0 0 0 0 0 0 0 0 0 0 0 0 0 0 0 0 127 0" result="hardAlpha"/>
<feOffset dy="0.648722"/>
<feGaussianBlur stdDeviation="0.648722"/>
<feColorMatrix type="matrix" values="0 0 0 0 0 0 0 0 0 0 0 0 0 0 0 0 0 0 0.16 0"/>
<feBlend mode="normal" in2="BackgroundImageFix" result="effect1_dropShadow_1835_41944"/>
<feColorMatrix in="SourceAlpha" type="matrix" values="0 0 0 0 0 0 0 0 0 0 0 0 0 0 0 0 0 0 127 0" result="hardAlpha"/>
<feOffset/>
<feGaussianBlur stdDeviation="0.162181"/>
<feColorMatrix type="matrix" values="0 0 0 0 0 0 0 0 0 0 0 0 0 0 0 0 0 0 0.04 0"/>
<feBlend mode="normal" in2="effect1_dropShadow_1835_41944" result="effect2_dropShadow_1835_41944"/>
<feBlend mode="normal" in="SourceGraphic" in2="effect2_dropShadow_1835_41944" result="shape"/>
</filter>
<filter id="filter7_dd_1835_41944" x="216.792" y="85.3513" width="43.1401" height="95.8487" filterUnits="userSpaceOnUse" color-interpolation-filters="sRGB">
<feFlood flood-opacity="0" result="BackgroundImageFix"/>
<feColorMatrix in="SourceAlpha" type="matrix" values="0 0 0 0 0 0 0 0 0 0 0 0 0 0 0 0 0 0 127 0" result="hardAlpha"/>
<feOffset dy="0.648722"/>
<feGaussianBlur stdDeviation="0.648722"/>
<feColorMatrix type="matrix" values="0 0 0 0 0 0 0 0 0 0 0 0 0 0 0 0 0 0 0.16 0"/>
<feBlend mode="normal" in2="BackgroundImageFix" result="effect1_dropShadow_1835_41944"/>
<feColorMatrix in="SourceAlpha" type="matrix" values="0 0 0 0 0 0 0 0 0 0 0 0 0 0 0 0 0 0 127 0" result="hardAlpha"/>
<feOffset/>
<feGaussianBlur stdDeviation="0.162181"/>
<feColorMatrix type="matrix" values="0 0 0 0 0 0 0 0 0 0 0 0 0 0 0 0 0 0 0.04 0"/>
<feBlend mode="normal" in2="effect1_dropShadow_1835_41944" result="effect2_dropShadow_1835_41944"/>
<feBlend mode="normal" in="SourceGraphic" in2="effect2_dropShadow_1835_41944" result="shape"/>
</filter>
<filter id="filter8_dd_1835_41944" x="267.156" y="85.3513" width="43.1401" height="98.2814" filterUnits="userSpaceOnUse" color-interpolation-filters="sRGB">
<feFlood flood-opacity="0" result="BackgroundImageFix"/>
<feColorMatrix in="SourceAlpha" type="matrix" values="0 0 0 0 0 0 0 0 0 0 0 0 0 0 0 0 0 0 127 0" result="hardAlpha"/>
<feOffset dy="0.648722"/>
<feGaussianBlur stdDeviation="0.648722"/>
<feColorMatrix type="matrix" values="0 0 0 0 0 0 0 0 0 0 0 0 0 0 0 0 0 0 0.16 0"/>
<feBlend mode="normal" in2="BackgroundImageFix" result="effect1_dropShadow_1835_41944"/>
<feColorMatrix in="SourceAlpha" type="matrix" values="0 0 0 0 0 0 0 0 0 0 0 0 0 0 0 0 0 0 127 0" result="hardAlpha"/>
<feOffset/>
<feGaussianBlur stdDeviation="0.162181"/>
<feColorMatrix type="matrix" values="0 0 0 0 0 0 0 0 0 0 0 0 0 0 0 0 0 0 0.04 0"/>
<feBlend mode="normal" in2="effect1_dropShadow_1835_41944" result="effect2_dropShadow_1835_41944"/>
<feBlend mode="normal" in="SourceGraphic" in2="effect2_dropShadow_1835_41944" result="shape"/>
</filter>
<filter id="filter9_dd_1835_41944" x="267.156" y="85.3513" width="43.1401" height="98.2814" filterUnits="userSpaceOnUse" color-interpolation-filters="sRGB">
<feFlood flood-opacity="0" result="BackgroundImageFix"/>
<feColorMatrix in="SourceAlpha" type="matrix" values="0 0 0 0 0 0 0 0 0 0 0 0 0 0 0 0 0 0 127 0" result="hardAlpha"/>
<feOffset dy="0.648722"/>
<feGaussianBlur stdDeviation="0.648722"/>
<feColorMatrix type="matrix" values="0 0 0 0 0 0 0 0 0 0 0 0 0 0 0 0 0 0 0.16 0"/>
<feBlend mode="normal" in2="BackgroundImageFix" result="effect1_dropShadow_1835_41944"/>
<feColorMatrix in="SourceAlpha" type="matrix" values="0 0 0 0 0 0 0 0 0 0 0 0 0 0 0 0 0 0 127 0" result="hardAlpha"/>
<feOffset/>
<feGaussianBlur stdDeviation="0.162181"/>
<feColorMatrix type="matrix" values="0 0 0 0 0 0 0 0 0 0 0 0 0 0 0 0 0 0 0.04 0"/>
<feBlend mode="normal" in2="effect1_dropShadow_1835_41944" result="effect2_dropShadow_1835_41944"/>
<feBlend mode="normal" in="SourceGraphic" in2="effect2_dropShadow_1835_41944" result="shape"/>
</filter>
<linearGradient id="paint0_linear_1835_41944" x1="87.2726" y1="171.956" x2="87.2726" y2="161.739" gradientUnits="userSpaceOnUse">
<stop stop-color="#D2D5D7"/>
<stop offset="1" stop-color="white"/>
</linearGradient>
<linearGradient id="paint1_linear_1835_41944" x1="137.636" y1="174.389" x2="137.636" y2="161.739" gradientUnits="userSpaceOnUse">
<stop stop-color="#D2D5D7"/>
<stop offset="1" stop-color="white"/>
</linearGradient>
<linearGradient id="paint2_linear_1835_41944" x1="187.999" y1="176.822" x2="187.999" y2="161.739" gradientUnits="userSpaceOnUse">
<stop stop-color="#D2D5D7"/>
<stop offset="1" stop-color="white"/>
</linearGradient>
<linearGradient id="paint3_linear_1835_41944" x1="238.362" y1="179.254" x2="238.362" y2="161.739" gradientUnits="userSpaceOnUse">
<stop stop-color="#D2D5D7"/>
<stop offset="1" stop-color="white"/>
</linearGradient>
<linearGradient id="paint4_linear_1835_41944" x1="288.726" y1="181.687" x2="288.726" y2="161.738" gradientUnits="userSpaceOnUse">
<stop stop-color="#D2D5D7"/>
<stop offset="1" stop-color="white"/>
</linearGradient>
</defs>
</svg>
