<svg width="375" height="227" viewBox="0 0 375 227" fill="none" xmlns="http://www.w3.org/2000/svg">
<rect width="375" height="227" rx="9.86865" fill="white"/>
<path d="M147.274 46.378C147.562 45.91 147.976 45.532 148.516 45.244C149.056 44.956 149.674 44.812 150.37 44.812C151.198 44.812 151.948 45.022 152.62 45.442C153.292 45.862 153.82 46.462 154.204 47.242C154.6 48.022 154.798 48.928 154.798 49.96C154.798 50.992 154.6 51.904 154.204 52.696C153.82 53.476 153.292 54.082 152.62 54.514C151.948 54.934 151.198 55.144 150.37 55.144C149.662 55.144 149.044 55.006 148.516 54.73C147.988 54.442 147.574 54.064 147.274 53.596V55H144.196V41.68H147.274V46.378ZM151.666 49.96C151.666 49.192 151.45 48.592 151.018 48.16C150.598 47.716 150.076 47.494 149.452 47.494C148.84 47.494 148.318 47.716 147.886 48.16C147.466 48.604 147.256 49.21 147.256 49.978C147.256 50.746 147.466 51.352 147.886 51.796C148.318 52.24 148.84 52.462 149.452 52.462C150.064 52.462 150.586 52.24 151.018 51.796C151.45 51.34 151.666 50.728 151.666 49.96ZM166.331 44.956V55H163.253V53.632C162.941 54.076 162.515 54.436 161.975 54.712C161.447 54.976 160.859 55.108 160.211 55.108C159.443 55.108 158.765 54.94 158.177 54.604C157.589 54.256 157.133 53.758 156.809 53.11C156.485 52.462 156.323 51.7 156.323 50.824V44.956H159.383V50.41C159.383 51.082 159.557 51.604 159.905 51.976C160.253 52.348 160.721 52.534 161.309 52.534C161.909 52.534 162.383 52.348 162.731 51.976C163.079 51.604 163.253 51.082 163.253 50.41V44.956H166.331ZM178.802 44.956L172.502 59.77H169.19L171.494 54.658L167.408 44.956H170.846L173.168 51.238L175.472 44.956H178.802ZM196.545 44.848C197.793 44.848 198.783 45.226 199.515 45.982C200.259 46.738 200.631 47.788 200.631 49.132V55H197.571V49.546C197.571 48.898 197.397 48.4 197.049 48.052C196.713 47.692 196.245 47.512 195.645 47.512C195.045 47.512 194.571 47.692 194.223 48.052C193.887 48.4 193.719 48.898 193.719 49.546V55H190.659V49.546C190.659 48.898 190.485 48.4 190.137 48.052C189.801 47.692 189.333 47.512 188.733 47.512C188.133 47.512 187.659 47.692 187.311 48.052C186.975 48.4 186.807 48.898 186.807 49.546V55H183.729V44.956H186.807V46.216C187.119 45.796 187.527 45.466 188.031 45.226C188.535 44.974 189.105 44.848 189.741 44.848C190.497 44.848 191.169 45.01 191.757 45.334C192.357 45.658 192.825 46.12 193.161 46.72C193.509 46.168 193.983 45.718 194.583 45.37C195.183 45.022 195.837 44.848 196.545 44.848ZM207.356 55.144C206.372 55.144 205.484 54.934 204.692 54.514C203.912 54.094 203.294 53.494 202.838 52.714C202.394 51.934 202.172 51.022 202.172 49.978C202.172 48.946 202.4 48.04 202.856 47.26C203.312 46.468 203.936 45.862 204.728 45.442C205.52 45.022 206.408 44.812 207.392 44.812C208.376 44.812 209.264 45.022 210.056 45.442C210.848 45.862 211.472 46.468 211.928 47.26C212.384 48.04 212.612 48.946 212.612 49.978C212.612 51.01 212.378 51.922 211.91 52.714C211.454 53.494 210.824 54.094 210.02 54.514C209.228 54.934 208.34 55.144 207.356 55.144ZM207.356 52.48C207.944 52.48 208.442 52.264 208.85 51.832C209.27 51.4 209.48 50.782 209.48 49.978C209.48 49.174 209.276 48.556 208.868 48.124C208.472 47.692 207.98 47.476 207.392 47.476C206.792 47.476 206.294 47.692 205.898 48.124C205.502 48.544 205.304 49.162 205.304 49.978C205.304 50.782 205.496 51.4 205.88 51.832C206.276 52.264 206.768 52.48 207.356 52.48ZM217.323 46.63C217.683 46.078 218.133 45.646 218.673 45.334C219.213 45.01 219.813 44.848 220.473 44.848V48.106H219.627C218.859 48.106 218.283 48.274 217.899 48.61C217.515 48.934 217.323 49.51 217.323 50.338V55H214.245V44.956H217.323V46.63ZM231.412 49.816C231.412 50.104 231.394 50.404 231.358 50.716H224.392C224.44 51.34 224.638 51.82 224.986 52.156C225.346 52.48 225.784 52.642 226.3 52.642C227.068 52.642 227.602 52.318 227.902 51.67H231.178C231.01 52.33 230.704 52.924 230.26 53.452C229.828 53.98 229.282 54.394 228.622 54.694C227.962 54.994 227.224 55.144 226.408 55.144C225.424 55.144 224.548 54.934 223.78 54.514C223.012 54.094 222.412 53.494 221.98 52.714C221.548 51.934 221.332 51.022 221.332 49.978C221.332 48.934 221.542 48.022 221.962 47.242C222.394 46.462 222.994 45.862 223.762 45.442C224.53 45.022 225.412 44.812 226.408 44.812C227.38 44.812 228.244 45.016 229 45.424C229.756 45.832 230.344 46.414 230.764 47.17C231.196 47.926 231.412 48.808 231.412 49.816ZM228.262 49.006C228.262 48.478 228.082 48.058 227.722 47.746C227.362 47.434 226.912 47.278 226.372 47.278C225.856 47.278 225.418 47.428 225.058 47.728C224.71 48.028 224.494 48.454 224.41 49.006H228.262Z" fill="#0077C8"/>
<path opacity="0.25" d="M66.7383 164.236C66.7383 169.172 70.7397 173.174 75.6758 173.174H298.034C302.971 173.174 306.972 169.172 306.972 164.236V147.58H66.7383V164.236Z" fill="url(#paint0_linear_1835_41945)"/>
<path d="M190.141 99.4043L190.141 164.141" stroke="#BBBCBC" stroke-width="1.63854"/>
<rect x="67.245" y="90.241" width="240.369" height="83.5302" rx="9.27991" stroke="#BBBCBC" stroke-width="1.63854"/>
<path d="M322.125 135.398C322.125 143.252 315.896 149.589 308.25 149.589C300.604 149.589 294.375 143.252 294.375 135.398C294.375 127.543 300.604 121.206 308.25 121.206C315.896 121.206 322.125 127.543 322.125 135.398Z" fill="#0077C8" stroke="#0077C8" stroke-width="1.72642"/>
<path fill-rule="evenodd" clip-rule="evenodd" d="M303.086 134.985V136.506H313.763V134.985H303.086Z" fill="white"/>
<path fill-rule="evenodd" clip-rule="evenodd" d="M309.169 130.067L307.68 130.067L307.68 140.973H309.169L309.169 130.067Z" fill="white"/>
<rect x="106.909" y="77.8193" width="165.134" height="22.6138" rx="5.49272" fill="white" stroke="#E0E0E0" stroke-width="1.63854"/>
<path d="M80.6133 133.644C80.6133 141.499 74.384 147.835 66.7383 147.835C59.0925 147.835 52.8632 141.499 52.8632 133.644C52.8632 125.788 59.0925 119.452 66.7383 119.452C74.384 119.452 80.6133 125.788 80.6133 133.644Z" fill="#0077C8" stroke="#0077C8" stroke-width="1.72647"/>
<path fill-rule="evenodd" clip-rule="evenodd" d="M59.8164 132.391V134.325H73.3949V132.391H59.8164Z" fill="white"/>
<path d="M243.187 134.993C242.9 134.463 242.483 134.061 241.938 133.789C241.407 133.501 240.779 133.357 240.052 133.357C238.794 133.357 237.787 133.773 237.029 134.607C236.272 135.425 235.893 136.523 235.893 137.901C235.893 139.371 236.287 140.522 237.075 141.355C237.878 142.173 238.976 142.582 240.37 142.582C241.324 142.582 242.127 142.34 242.778 141.855C243.445 141.371 243.93 140.674 244.233 139.765H239.302V136.902H247.755V140.515C247.467 141.484 246.975 142.386 246.278 143.219C245.596 144.052 244.725 144.726 243.665 145.241C242.604 145.756 241.407 146.014 240.074 146.014C238.499 146.014 237.09 145.673 235.848 144.991C234.621 144.294 233.659 143.332 232.962 142.105C232.28 140.878 231.939 139.477 231.939 137.901C231.939 136.326 232.28 134.925 232.962 133.698C233.659 132.455 234.621 131.494 235.848 130.812C237.075 130.115 238.476 129.767 240.052 129.767C241.96 129.767 243.566 130.229 244.869 131.153C246.187 132.077 247.058 133.357 247.482 134.993H243.187ZM259.718 137.72C260.642 137.917 261.385 138.379 261.945 139.106C262.506 139.818 262.786 140.636 262.786 141.56C262.786 142.893 262.316 143.953 261.377 144.741C260.453 145.514 259.158 145.9 257.491 145.9H250.061V129.948H257.241C258.862 129.948 260.127 130.32 261.036 131.062C261.96 131.804 262.422 132.811 262.422 134.084C262.422 135.023 262.172 135.803 261.672 136.424C261.188 137.046 260.536 137.477 259.718 137.72ZM253.947 136.402H256.492C257.128 136.402 257.613 136.265 257.946 135.993C258.294 135.705 258.468 135.288 258.468 134.743C258.468 134.198 258.294 133.781 257.946 133.493C257.613 133.205 257.128 133.061 256.492 133.061H253.947V136.402ZM256.81 142.764C257.461 142.764 257.961 142.62 258.309 142.332C258.673 142.03 258.855 141.598 258.855 141.037C258.855 140.477 258.665 140.037 258.287 139.719C257.923 139.401 257.416 139.242 256.764 139.242H253.947V142.764H256.81Z" fill="#0077C8"/>
<path d="M123.664 134.767C123.377 134.237 122.96 133.836 122.415 133.563C121.884 133.275 121.256 133.131 120.529 133.131C119.271 133.131 118.264 133.548 117.506 134.381C116.749 135.199 116.37 136.297 116.37 137.676C116.37 139.145 116.764 140.297 117.552 141.13C118.355 141.948 119.453 142.357 120.847 142.357C121.801 142.357 122.604 142.114 123.255 141.63C123.922 141.145 124.407 140.448 124.71 139.539H119.779V136.676H128.232V140.289C127.944 141.259 127.452 142.16 126.755 142.993C126.073 143.826 125.202 144.5 124.142 145.015C123.081 145.531 121.884 145.788 120.551 145.788C118.976 145.788 117.567 145.447 116.325 144.766C115.098 144.069 114.136 143.107 113.439 141.88C112.757 140.653 112.416 139.251 112.416 137.676C112.416 136.1 112.757 134.699 113.439 133.472C114.136 132.23 115.098 131.268 116.325 130.586C117.552 129.889 118.953 129.541 120.529 129.541C122.437 129.541 124.043 130.003 125.346 130.927C126.664 131.851 127.535 133.131 127.959 134.767H123.664ZM140.195 137.494C141.119 137.691 141.862 138.153 142.422 138.88C142.983 139.592 143.263 140.41 143.263 141.334C143.263 142.667 142.793 143.728 141.854 144.516C140.93 145.288 139.635 145.674 137.968 145.674H130.538V129.723H137.718C139.339 129.723 140.604 130.094 141.513 130.836C142.437 131.579 142.899 132.586 142.899 133.858C142.899 134.798 142.649 135.578 142.149 136.199C141.665 136.82 141.013 137.252 140.195 137.494ZM134.424 136.176H136.968C137.605 136.176 138.09 136.04 138.423 135.767C138.771 135.479 138.945 135.063 138.945 134.517C138.945 133.972 138.771 133.555 138.423 133.268C138.09 132.98 137.605 132.836 136.968 132.836H134.424V136.176ZM137.287 142.539C137.938 142.539 138.438 142.395 138.786 142.107C139.15 141.804 139.332 141.372 139.332 140.812C139.332 140.251 139.142 139.812 138.764 139.494C138.4 139.176 137.893 139.017 137.241 139.017H134.424V142.539H137.287Z" fill="#0077C8"/>
<rect x="141.077" y="163.59" width="94.7385" height="22.5911" rx="5.49272" fill="white" stroke="#E0E0E0" stroke-width="1.63854"/>
<path d="M108.004 120.481H149.271" stroke="#E0E0E0" stroke-width="1.63791" stroke-linecap="round"/>
<path d="M214.121 120.481H280.443" stroke="#E0E0E0" stroke-width="1.63791" stroke-linecap="round"/>
<path d="M155.168 174.68H221.49" stroke="#E0E0E0" stroke-width="1.63791" stroke-linecap="round"/>
<path d="M118.32 88.8662L258.334 88.8662" stroke="#E0E0E0" stroke-width="1.63791" stroke-linecap="round"/>
<defs>
<linearGradient id="paint0_linear_1835_41945" x1="186.855" y1="173.174" x2="186.855" y2="147.58" gradientUnits="userSpaceOnUse">
<stop stop-color="#D2D5D7"/>
<stop offset="1" stop-color="white"/>
</linearGradient>
</defs>
</svg>
