<svg width="415" height="267" viewBox="0 0 415 267" fill="none" xmlns="http://www.w3.org/2000/svg">
<g filter="url(#filter0_dd_1835_41943)">
<rect x="20" y="20" width="375" height="227" rx="9.86865" fill="white"/>
</g>
<g filter="url(#filter1_dd_1835_41943)">
<rect x="240.02" y="106" width="54.9789" height="89.7989" rx="3.66526" fill="white"/>
</g>
<path opacity="0.25" d="M240.02 192.133C240.02 194.157 241.661 195.798 243.685 195.798H291.333C293.357 195.798 294.998 194.157 294.998 192.133V178.571H240.02V192.133Z" fill="url(#paint0_linear_1835_41943)"/>
<path d="M240.02 109.665C240.02 107.641 241.661 106 243.685 106H291.333C293.357 106 294.998 107.641 294.998 109.665V118.095H240.02V109.665Z" fill="#006BB4"/>
<g filter="url(#filter2_dd_1835_41943)">
<rect x="181.016" y="106" width="54.9789" height="84.301" rx="3.66526" fill="white"/>
</g>
<path opacity="0.25" d="M181.016 186.636C181.016 188.66 182.657 190.301 184.681 190.301H232.329C234.354 190.301 235.995 188.66 235.995 186.636V176.373H181.016V186.636Z" fill="url(#paint1_linear_1835_41943)"/>
<path d="M181.016 109.665C181.016 107.641 182.657 106 184.681 106H232.329C234.354 106 235.995 107.641 235.995 109.665V118.095H181.016V109.665Z" fill="#0077C8"/>
<g filter="url(#filter3_dd_1835_41943)">
<path d="M122 109.666C122 107.641 123.641 106 125.665 106H173.314C175.338 106 176.979 107.641 176.979 109.666V179.305C176.979 181.33 175.338 182.971 173.314 182.971H125.665C123.641 182.971 122 181.33 122 179.305V109.666Z" fill="white"/>
</g>
<path opacity="0.25" d="M122 179.306C122 181.33 123.641 182.971 125.665 182.971H173.314C175.338 182.971 176.979 181.33 176.979 179.306V173.808H122V179.306Z" fill="url(#paint2_linear_1835_41943)"/>
<path d="M122 109.665C122 107.641 123.641 106 125.665 106H173.314C175.338 106 176.979 107.641 176.979 109.665V118.095H122V109.665Z" fill="#3392D3"/>
<path d="M128.965 127.99H153.889" stroke="#E0E0E0" stroke-width="1.09958" stroke-linecap="round"/>
<path d="M188.344 127.99H213.268" stroke="#E0E0E0" stroke-width="1.09958" stroke-linecap="round"/>
<path d="M247.351 127.99H272.275" stroke="#E0E0E0" stroke-width="1.09958" stroke-linecap="round"/>
<path d="M128.965 136.787H162.685" stroke="#E0E0E0" stroke-width="1.09958" stroke-linecap="round"/>
<path d="M188.344 136.787H222.064" stroke="#E0E0E0" stroke-width="1.09958" stroke-linecap="round"/>
<path d="M247.351 136.787H281.072" stroke="#E0E0E0" stroke-width="1.09958" stroke-linecap="round"/>
<path d="M128.965 173.806H162.685" stroke="#E0E0E0" stroke-width="1.09958" stroke-linecap="round"/>
<path d="M128.965 164.643H162.685" stroke="#E0E0E0" stroke-width="1.09958" stroke-linecap="round"/>
<path d="M188.344 173.806H222.064" stroke="#E0E0E0" stroke-width="1.09958" stroke-linecap="round"/>
<path d="M188.344 164.643H222.064" stroke="#E0E0E0" stroke-width="1.09958" stroke-linecap="round"/>
<path d="M247.351 173.806H281.072" stroke="#E0E0E0" stroke-width="1.09958" stroke-linecap="round"/>
<path d="M247.351 164.643H281.072" stroke="#E0E0E0" stroke-width="1.09958" stroke-linecap="round"/>
<path d="M140.723 147.868H143.311C143.357 147.249 143.667 146.629 144.519 146.629C145.232 146.629 145.681 147.047 145.681 147.807C145.681 148.829 144.813 149.046 143.915 149.046H143.419V151.199H143.915C145.294 151.199 145.898 151.602 145.898 152.609C145.898 153.353 145.449 153.88 144.627 153.88C143.651 153.88 143.171 153.291 143.156 152.408H140.584C140.661 154.964 142.366 156.08 144.72 156.08C147.091 156.08 148.454 154.716 148.454 152.811C148.454 151.323 147.679 150.456 146.549 150.084V150.022C147.323 149.759 148.253 148.968 148.253 147.481C148.253 145.777 146.967 144.414 144.581 144.414C142.273 144.414 140.816 145.638 140.723 147.868ZM150.011 150.177C150.011 153.523 151.142 155.94 154.364 155.94C157.587 155.94 158.717 153.523 158.717 150.177C158.717 146.861 157.587 144.445 154.364 144.445C151.142 144.445 150.011 146.861 150.011 150.177ZM156.115 150.177C156.115 151.974 155.929 153.461 154.364 153.461C152.799 153.461 152.613 151.974 152.613 150.177C152.613 148.442 152.799 146.923 154.364 146.923C155.929 146.923 156.115 148.442 156.115 150.177Z" fill="#3392D3"/>
<path d="M207.089 147.729C206.95 146.056 205.865 144.445 203.433 144.445C200.505 144.445 199.296 146.381 199.296 150.254C199.296 153.632 200.133 156.049 203.541 156.049C205.974 156.049 207.399 154.499 207.399 152.253C207.399 149.898 206.004 148.612 204.037 148.612C202.999 148.612 202.085 149.046 201.636 149.774C201.651 147.59 202.116 146.583 203.309 146.583C204.099 146.583 204.471 146.985 204.626 147.729H207.089ZM203.402 150.704C204.393 150.704 204.905 151.323 204.905 152.268C204.905 153.229 204.331 153.802 203.433 153.802C202.426 153.802 201.852 153.213 201.852 152.222C201.852 151.199 202.565 150.704 203.402 150.704ZM208.897 150.177C208.897 153.523 210.028 155.94 213.251 155.94C216.473 155.94 217.604 153.523 217.604 150.177C217.604 146.861 216.473 144.445 213.251 144.445C210.028 144.445 208.897 146.861 208.897 150.177ZM215.001 150.177C215.001 151.974 214.815 153.461 213.251 153.461C211.686 153.461 211.5 151.974 211.5 150.177C211.5 148.442 211.686 146.923 213.251 146.923C214.815 146.923 215.001 148.442 215.001 150.177Z" fill="#0077C8"/>
<path d="M251.296 155.987H254.053V144.677H249.762V147.14H251.296V155.987ZM255.866 150.177C255.866 153.523 256.997 155.94 260.219 155.94C263.441 155.94 264.572 153.523 264.572 150.177C264.572 146.861 263.441 144.445 260.219 144.445C256.997 144.445 255.866 146.861 255.866 150.177ZM261.97 150.177C261.97 151.974 261.784 153.461 260.219 153.461C258.654 153.461 258.468 151.974 258.468 150.177C258.468 148.442 258.654 146.923 260.219 146.923C261.784 146.923 261.97 148.442 261.97 150.177ZM265.972 150.177C265.972 153.523 267.103 155.94 270.325 155.94C273.548 155.94 274.679 153.523 274.679 150.177C274.679 146.861 273.548 144.445 270.325 144.445C267.103 144.445 265.972 146.861 265.972 150.177ZM272.076 150.177C272.076 151.974 271.89 153.461 270.325 153.461C268.761 153.461 268.575 151.974 268.575 150.177C268.575 148.442 268.761 146.923 270.325 146.923C271.89 146.923 272.076 148.442 272.076 150.177ZM278.991 146.614V149.387H276.295V151.757H278.991V154.515H281.501V151.757H284.197V149.387H281.501V146.614H278.991Z" fill="#006BB4"/>
<path d="M228.098 71.542H222.482V74.026C222.722 73.762 223.058 73.546 223.49 73.378C223.922 73.21 224.39 73.126 224.894 73.126C225.794 73.126 226.538 73.33 227.126 73.738C227.726 74.146 228.164 74.674 228.44 75.322C228.716 75.97 228.854 76.672 228.854 77.428C228.854 78.832 228.458 79.948 227.666 80.776C226.874 81.592 225.758 82 224.318 82C223.358 82 222.524 81.838 221.816 81.514C221.108 81.178 220.562 80.716 220.178 80.128C219.794 79.54 219.584 78.862 219.548 78.094H222.554C222.626 78.466 222.8 78.778 223.076 79.03C223.352 79.27 223.73 79.39 224.21 79.39C224.774 79.39 225.194 79.21 225.47 78.85C225.746 78.49 225.884 78.01 225.884 77.41C225.884 76.822 225.74 76.372 225.452 76.06C225.164 75.748 224.744 75.592 224.192 75.592C223.784 75.592 223.448 75.694 223.184 75.898C222.92 76.09 222.746 76.348 222.662 76.672H219.692V68.842H228.098V71.542ZM239.247 73.36C239.019 72.94 238.689 72.622 238.257 72.406C237.837 72.178 237.339 72.064 236.763 72.064C235.767 72.064 234.969 72.394 234.369 73.054C233.769 73.702 233.469 74.572 233.469 75.664C233.469 76.828 233.781 77.74 234.405 78.4C235.041 79.048 235.911 79.372 237.015 79.372C237.771 79.372 238.407 79.18 238.923 78.796C239.451 78.412 239.835 77.86 240.075 77.14H236.169V74.872H242.865V77.734C242.637 78.502 242.247 79.216 241.695 79.876C241.155 80.536 240.465 81.07 239.625 81.478C238.785 81.886 237.837 82.09 236.781 82.09C235.533 82.09 234.417 81.82 233.433 81.28C232.461 80.728 231.699 79.966 231.147 78.994C230.607 78.022 230.337 76.912 230.337 75.664C230.337 74.416 230.607 73.306 231.147 72.334C231.699 71.35 232.461 70.588 233.433 70.048C234.405 69.496 235.515 69.22 236.763 69.22C238.275 69.22 239.547 69.586 240.579 70.318C241.623 71.05 242.313 72.064 242.649 73.36H239.247ZM262.803 71.956L260.085 82H256.683L255.099 75.484L253.461 82H250.077L247.341 71.956H250.419L251.841 79.138L253.533 71.956H256.791L258.501 79.102L259.905 71.956H262.803ZM265.524 70.912C264.984 70.912 264.54 70.756 264.192 70.444C263.856 70.12 263.688 69.724 263.688 69.256C263.688 68.776 263.856 68.38 264.192 68.068C264.54 67.744 264.984 67.582 265.524 67.582C266.052 67.582 266.484 67.744 266.82 68.068C267.168 68.38 267.342 68.776 267.342 69.256C267.342 69.724 267.168 70.12 266.82 70.444C266.484 70.756 266.052 70.912 265.524 70.912ZM267.054 71.956V82H263.976V71.956H267.054ZM274.325 74.512H272.669V82H269.591V74.512H268.475V71.956H269.591V71.668C269.591 70.432 269.945 69.496 270.653 68.86C271.361 68.212 272.399 67.888 273.767 67.888C273.995 67.888 274.163 67.894 274.271 67.906V70.516C273.683 70.48 273.269 70.564 273.029 70.768C272.789 70.972 272.669 71.338 272.669 71.866V71.956H274.325V74.512ZM277.319 70.912C276.779 70.912 276.335 70.756 275.987 70.444C275.651 70.12 275.483 69.724 275.483 69.256C275.483 68.776 275.651 68.38 275.987 68.068C276.335 67.744 276.779 67.582 277.319 67.582C277.847 67.582 278.279 67.744 278.615 68.068C278.963 68.38 279.137 68.776 279.137 69.256C279.137 69.724 278.963 70.12 278.615 70.444C278.279 70.756 277.847 70.912 277.319 70.912ZM278.849 71.956V82H275.771V71.956H278.849Z" fill="#0077C8"/>
<g clip-path="url(#clip0_1835_41943)">
<path d="M201.049 68.1503H197.854V73.8736C197.854 75.3085 197.069 76.1018 195.837 76.1018C194.604 76.1018 193.838 75.3085 193.838 73.8736V68.1503H190.662V74.3085C190.662 77.1223 192.287 78.8034 194.697 78.8034C196.099 78.8034 197.22 78.1619 197.854 77.255V78.6899H201.049V68.1503Z" fill="#0077C8"/>
<path d="M206.07 69.6428V68.1505H202.875V83.7143H206.07V77.2168C206.649 78.1046 207.752 78.8405 209.283 78.8405C211.843 78.8405 213.88 76.7258 213.88 73.4018C213.88 70.0778 211.842 68 209.282 68C207.75 68 206.648 68.7181 206.068 69.6428H206.07ZM210.628 73.4018C210.628 75.0829 209.545 76.0268 208.331 76.0268C207.117 76.0268 206.052 75.1007 206.052 73.421C206.052 71.7412 207.136 70.8151 208.331 70.8151C209.526 70.8151 210.628 71.722 210.628 73.4032V73.4018Z" fill="#0077C8"/>
<path d="M139.018 78.9175C138.962 74.9889 133.32 76.179 133.32 74.4979C133.32 73.9876 133.731 73.6853 134.478 73.6853C135.375 73.6853 135.917 74.1572 136.01 74.8754H138.962C138.757 72.7976 137.263 71.2874 134.572 71.2874C131.88 71.2874 130.331 72.7593 130.331 74.5539C130.331 78.4251 136.01 77.1981 136.01 78.8984C136.01 79.3703 135.58 79.7478 134.758 79.7478C133.88 79.7478 133.227 79.2567 133.152 78.5208H129.994C130.143 80.5603 132.011 82.1279 134.795 82.1279C137.41 82.1279 139.017 80.7491 139.017 78.9175H139.018Z" fill="#0077C8"/>
<path d="M143.698 72.9298V71.4374H140.503V86.9999H143.698V80.5024C144.277 81.3902 145.38 82.1261 146.912 82.1261C149.472 82.1261 151.508 80.0114 151.508 76.6874C151.508 73.3634 149.472 71.2856 146.912 71.2856C145.38 71.2856 144.277 72.0037 143.698 72.9284V72.9298ZM148.257 76.6888C148.257 78.3699 147.173 79.3137 145.959 79.3137C144.745 79.3137 143.68 78.3877 143.68 76.7079C143.68 75.0281 144.764 74.1021 145.959 74.1021C147.154 74.1021 148.257 75.009 148.257 76.6901V76.6888Z" fill="#0077C8"/>
<path d="M157.588 73.8737C158.653 73.8737 159.551 74.5344 159.551 75.6861H155.552C155.739 74.5152 156.543 73.8737 157.588 73.8737ZM162.577 78.4821H159.177C158.916 79.0484 158.411 79.5025 157.514 79.5025C156.487 79.5025 155.645 78.861 155.533 77.4822H162.763C162.801 77.1607 162.818 76.8406 162.818 76.5383C162.818 73.3279 160.67 71.2884 157.625 71.2884C154.58 71.2884 152.356 73.3662 152.356 76.7093C152.356 80.0524 154.56 82.1303 157.625 82.1303C160.222 82.1303 162.071 80.5435 162.576 78.4848L162.577 78.4821Z" fill="#0077C8"/>
<path d="M168.9 73.8737C169.964 73.8737 170.862 74.5344 170.862 75.6861H166.863C167.05 74.5152 167.854 73.8737 168.9 73.8737ZM173.888 78.4821H170.488C170.227 79.0484 169.722 79.5025 168.825 79.5025C167.798 79.5025 166.956 78.861 166.844 77.4822H174.074C174.112 77.1607 174.129 76.8406 174.129 76.5383C174.129 73.3279 171.981 71.2884 168.936 71.2884C165.892 71.2884 163.667 73.3662 163.667 76.7093C163.667 80.0524 165.871 82.1303 168.936 82.1303C171.533 82.1303 173.382 80.5435 173.887 78.4848L173.888 78.4821Z" fill="#0077C8"/>
<path d="M174.985 76.6875C174.985 80.0114 177.022 82.1262 179.582 82.1262C181.114 82.1262 182.216 81.4272 182.796 80.4642V81.9757H185.99V68H182.796V72.8916C182.161 71.9286 180.965 71.2857 179.582 71.2857C177.022 71.2857 174.985 73.3635 174.985 76.6875ZM182.794 76.7066C182.794 78.3878 181.729 79.3125 180.516 79.3125C179.302 79.3125 178.237 78.3686 178.237 76.6875C178.237 75.0063 179.321 74.0994 180.516 74.0994C181.71 74.0994 182.794 75.0255 182.794 76.7053V76.7066Z" fill="#0077C8"/>
</g>
<defs>
<filter id="filter0_dd_1835_41943" x="0" y="0" width="415" height="267" filterUnits="userSpaceOnUse" color-interpolation-filters="sRGB">
<feFlood flood-opacity="0" result="BackgroundImageFix"/>
<feColorMatrix in="SourceAlpha" type="matrix" values="0 0 0 0 0 0 0 0 0 0 0 0 0 0 0 0 0 0 127 0" result="hardAlpha"/>
<feOffset dy="1"/>
<feGaussianBlur stdDeviation="3.5"/>
<feComposite in2="hardAlpha" operator="out"/>
<feColorMatrix type="matrix" values="0 0 0 0 0 0 0 0 0 0 0 0 0 0 0 0 0 0 0.1 0"/>
<feBlend mode="normal" in2="BackgroundImageFix" result="effect1_dropShadow_1835_41943"/>
<feColorMatrix in="SourceAlpha" type="matrix" values="0 0 0 0 0 0 0 0 0 0 0 0 0 0 0 0 0 0 127 0" result="hardAlpha"/>
<feOffset/>
<feGaussianBlur stdDeviation="10"/>
<feComposite in2="hardAlpha" operator="out"/>
<feColorMatrix type="matrix" values="0 0 0 0 0 0 0 0 0 0 0 0 0 0 0 0 0 0 0.05 0"/>
<feBlend mode="normal" in2="effect1_dropShadow_1835_41943" result="effect2_dropShadow_1835_41943"/>
<feBlend mode="normal" in="SourceGraphic" in2="effect2_dropShadow_1835_41943" result="shape"/>
</filter>
<filter id="filter1_dd_1835_41943" x="237.087" y="104.534" width="60.8434" height="95.6633" filterUnits="userSpaceOnUse" color-interpolation-filters="sRGB">
<feFlood flood-opacity="0" result="BackgroundImageFix"/>
<feColorMatrix in="SourceAlpha" type="matrix" values="0 0 0 0 0 0 0 0 0 0 0 0 0 0 0 0 0 0 127 0" result="hardAlpha"/>
<feOffset dy="1.4661"/>
<feGaussianBlur stdDeviation="1.4661"/>
<feColorMatrix type="matrix" values="0 0 0 0 0 0 0 0 0 0 0 0 0 0 0 0 0 0 0.16 0"/>
<feBlend mode="normal" in2="BackgroundImageFix" result="effect1_dropShadow_1835_41943"/>
<feColorMatrix in="SourceAlpha" type="matrix" values="0 0 0 0 0 0 0 0 0 0 0 0 0 0 0 0 0 0 127 0" result="hardAlpha"/>
<feOffset/>
<feGaussianBlur stdDeviation="0.366526"/>
<feColorMatrix type="matrix" values="0 0 0 0 0 0 0 0 0 0 0 0 0 0 0 0 0 0 0.04 0"/>
<feBlend mode="normal" in2="effect1_dropShadow_1835_41943" result="effect2_dropShadow_1835_41943"/>
<feBlend mode="normal" in="SourceGraphic" in2="effect2_dropShadow_1835_41943" result="shape"/>
</filter>
<filter id="filter2_dd_1835_41943" x="178.083" y="104.534" width="60.8434" height="90.1654" filterUnits="userSpaceOnUse" color-interpolation-filters="sRGB">
<feFlood flood-opacity="0" result="BackgroundImageFix"/>
<feColorMatrix in="SourceAlpha" type="matrix" values="0 0 0 0 0 0 0 0 0 0 0 0 0 0 0 0 0 0 127 0" result="hardAlpha"/>
<feOffset dy="1.4661"/>
<feGaussianBlur stdDeviation="1.4661"/>
<feColorMatrix type="matrix" values="0 0 0 0 0 0 0 0 0 0 0 0 0 0 0 0 0 0 0.16 0"/>
<feBlend mode="normal" in2="BackgroundImageFix" result="effect1_dropShadow_1835_41943"/>
<feColorMatrix in="SourceAlpha" type="matrix" values="0 0 0 0 0 0 0 0 0 0 0 0 0 0 0 0 0 0 127 0" result="hardAlpha"/>
<feOffset/>
<feGaussianBlur stdDeviation="0.366526"/>
<feColorMatrix type="matrix" values="0 0 0 0 0 0 0 0 0 0 0 0 0 0 0 0 0 0 0.04 0"/>
<feBlend mode="normal" in2="effect1_dropShadow_1835_41943" result="effect2_dropShadow_1835_41943"/>
<feBlend mode="normal" in="SourceGraphic" in2="effect2_dropShadow_1835_41943" result="shape"/>
</filter>
<filter id="filter3_dd_1835_41943" x="119.068" y="104.534" width="60.8434" height="82.8348" filterUnits="userSpaceOnUse" color-interpolation-filters="sRGB">
<feFlood flood-opacity="0" result="BackgroundImageFix"/>
<feColorMatrix in="SourceAlpha" type="matrix" values="0 0 0 0 0 0 0 0 0 0 0 0 0 0 0 0 0 0 127 0" result="hardAlpha"/>
<feOffset dy="1.4661"/>
<feGaussianBlur stdDeviation="1.4661"/>
<feColorMatrix type="matrix" values="0 0 0 0 0 0 0 0 0 0 0 0 0 0 0 0 0 0 0.16 0"/>
<feBlend mode="normal" in2="BackgroundImageFix" result="effect1_dropShadow_1835_41943"/>
<feColorMatrix in="SourceAlpha" type="matrix" values="0 0 0 0 0 0 0 0 0 0 0 0 0 0 0 0 0 0 127 0" result="hardAlpha"/>
<feOffset/>
<feGaussianBlur stdDeviation="0.366526"/>
<feColorMatrix type="matrix" values="0 0 0 0 0 0 0 0 0 0 0 0 0 0 0 0 0 0 0.04 0"/>
<feBlend mode="normal" in2="effect1_dropShadow_1835_41943" result="effect2_dropShadow_1835_41943"/>
<feBlend mode="normal" in="SourceGraphic" in2="effect2_dropShadow_1835_41943" result="shape"/>
</filter>
<linearGradient id="paint0_linear_1835_41943" x1="267.509" y1="195.798" x2="267.509" y2="178.571" gradientUnits="userSpaceOnUse">
<stop stop-color="#D2D5D7"/>
<stop offset="1" stop-color="white"/>
</linearGradient>
<linearGradient id="paint1_linear_1835_41943" x1="208.505" y1="190.301" x2="208.505" y2="176.373" gradientUnits="userSpaceOnUse">
<stop stop-color="#D2D5D7"/>
<stop offset="1" stop-color="white"/>
</linearGradient>
<linearGradient id="paint2_linear_1835_41943" x1="149.489" y1="182.971" x2="149.489" y2="173.808" gradientUnits="userSpaceOnUse">
<stop stop-color="#D2D5D7"/>
<stop offset="1" stop-color="white"/>
</linearGradient>
<clipPath id="clip0_1835_41943">
<rect width="83.8868" height="19" fill="white" transform="translate(130 68)"/>
</clipPath>
</defs>
</svg>
