<svg width="100" height="100" viewBox="0 0 100 100" fill="none" xmlns="http://www.w3.org/2000/svg">
<circle cx="50" cy="50" r="49.25" stroke="#0077C8" stroke-width="1.5"/>
<path d="M74.188 64.0733L64.0678 57.3238C62.7835 56.4742 61.062 56.7537 60.1125 57.9663L57.1646 61.7568C56.7858 62.2564 56.0971 62.4013 55.549 62.0968L54.9883 61.7876C53.1294 60.7743 50.8164 59.5128 46.1563 54.8507C41.4961 50.1885 40.2322 47.8737 39.2189 46.0181L38.9115 45.4573C38.6028 44.9093 38.745 44.2176 39.2447 43.8357L43.0324 40.8885C44.2444 39.9388 44.5243 38.2177 43.6757 36.9329L36.9267 26.812C36.057 25.5037 34.3121 25.111 32.9658 25.9204L28.7339 28.4627C27.4042 29.2444 26.4286 30.5106 26.0118 31.9957C24.4879 37.5486 25.6343 47.132 39.7506 61.251C50.9798 72.4801 59.3394 75.4999 65.0852 75.4999C66.4076 75.5055 67.7248 75.3335 69.0013 74.9883C70.4867 74.5719 71.7529 73.5962 72.5341 72.266L75.0788 68.0364C75.8893 66.6896 75.4968 64.9435 74.188 64.0733Z" fill="#0077C8"/>
</svg>
