<svg width="75" height="75" viewBox="0 0 75 75" fill="none" xmlns="http://www.w3.org/2000/svg">
<circle cx="37.0074" cy="37.0074" r="37.0074" fill="#0077C8"/>
<path fill-rule="evenodd" clip-rule="evenodd" d="M15.102 19.4623C15.326 19.0434 15.8472 18.8854 16.2662 19.1094L20.1034 21.1609C21.1073 21.7027 21.8314 22.6462 22.0937 23.7524L22.0942 23.7545L26.8462 43.421C27.0528 44.2789 27.826 44.8921 28.724 44.892L45.4161 44.8886C45.4257 44.8886 45.4352 44.8887 45.4446 44.889L46.2831 44.8888C47.1125 44.8887 47.8401 44.3131 48.0329 43.5007L48.0332 43.4996L51.2482 29.7143L51.2492 29.71C51.371 29.1998 50.984 28.7034 50.4449 28.7035L26.7004 28.7084C26.2253 28.7085 25.8401 28.3235 25.84 27.8484C25.8399 27.3734 26.225 26.9883 26.7001 26.9882L50.4445 26.9833C52.082 26.983 53.3043 28.5042 52.9232 30.1072L52.9227 30.1092L49.708 43.893L49.7073 43.8957C49.3323 45.4806 47.9148 46.6087 46.2834 46.609L29.5124 46.6125C29.5028 46.6125 29.4933 46.6123 29.4838 46.612L28.7243 46.6122C27.0351 46.6125 25.5676 45.459 25.1739 43.825L20.42 24.1505C20.2715 23.5228 19.8602 22.985 19.2876 22.6754L15.6196 20.7144L15.4549 20.6263C15.036 20.4023 14.878 19.8812 15.102 19.4623ZM28.4203 51.4311C28.4201 50.6167 29.0803 49.9563 29.8948 49.9562C30.7093 49.956 31.3697 50.6161 31.3699 51.4305C31.3701 52.2449 30.7099 52.9052 29.8954 52.9054C29.0809 52.9056 28.4205 52.2455 28.4203 51.4311ZM29.8944 48.236C28.1298 48.2363 26.6995 49.667 26.6999 51.4314C26.7002 53.1959 28.1311 54.6259 29.8957 54.6256C31.6604 54.6252 33.0907 53.1946 33.0903 51.4301C33.0899 49.6657 31.6591 48.2356 29.8944 48.236ZM43.9789 51.5673C43.9787 50.7529 44.6389 50.0926 45.4534 50.0924C46.2679 50.0922 46.9283 50.7523 46.9285 51.5667C46.9286 52.3811 46.2685 53.0415 45.454 53.0416C44.6395 53.0418 43.979 52.3817 43.9789 51.5673ZM45.453 48.3722C43.6884 48.3726 42.2581 49.8032 42.2585 51.5677C42.2588 53.3321 43.6897 54.7622 45.4543 54.7618C47.219 54.7615 48.6493 53.3308 48.6489 51.5664C48.6485 49.8019 47.2177 48.3719 45.453 48.3722Z" fill="white"/>
<path d="M37.2031 30.9039V41.9565" stroke="white" stroke-width="1.64" stroke-linecap="round"/>
<path d="M43.0625 36.4302L32.0085 36.4302" stroke="white" stroke-width="1.64" stroke-linecap="round"/>
</svg>
