<svg width="100" height="100" viewBox="0 0 100 100" fill="none" xmlns="http://www.w3.org/2000/svg">
<circle cx="50" cy="50" r="49.25" stroke="#0077C8" stroke-width="1.5"/>
<path fill-rule="evenodd" clip-rule="evenodd" d="M39.5 58H60.5L72.5 67V58H78.5C80.1569 58 81.5 56.6569 81.5 55V25C81.5 23.3431 80.1569 22 78.5 22H39.5C37.8431 22 36.5 23.3431 36.5 25V55C36.5 56.6569 37.8431 58 39.5 58Z" fill="#0077C8" stroke="#0077C8" stroke-width="1.5" stroke-linecap="round" stroke-linejoin="round"/>
<path fill-rule="evenodd" clip-rule="evenodd" d="M61.5 67H40.5L28.5 76V67H22.5C20.8431 67 19.5 65.6569 19.5 64V34C19.5 32.3431 20.8431 31 22.5 31H61.5C63.1569 31 64.5 32.3431 64.5 34V64C64.5 65.6569 63.1569 67 61.5 67Z" fill="white" stroke="#0077C8" stroke-width="1.5" stroke-linecap="round" stroke-linejoin="round"/>
<path fill-rule="evenodd" clip-rule="evenodd" d="M28.5 44.5H55.5H28.5Z" fill="white"/>
<path d="M28.5 44.5H55.5" stroke="#0077C8" stroke-width="1.5" stroke-linecap="round" stroke-linejoin="round"/>
<path fill-rule="evenodd" clip-rule="evenodd" d="M28.5 53.5H49.5H28.5Z" fill="white"/>
<path d="M28.5 53.5H49.5" stroke="#0077C8" stroke-width="1.5" stroke-linecap="round" stroke-linejoin="round"/>
</svg>
