<svg width="74" height="74" viewBox="0 0 74 74" fill="none" xmlns="http://www.w3.org/2000/svg">
<ellipse cx="37.0004" cy="37" rx="37.0004" ry="37" fill="#0077C8"/>
<path d="M52 36L37.7553 18.9064C37.3622 18.4347 36.6378 18.4347 36.2447 18.9064L22 36" stroke="white" stroke-width="1.64" stroke-linecap="round"/>
<mask id="path-3-outside-1_1828_40713" maskUnits="userSpaceOnUse" x="20.498" y="24.722" width="33" height="33" fill="black">
<rect fill="white" x="20.498" y="24.722" width="33" height="33"/>
<path fill-rule="evenodd" clip-rule="evenodd" d="M51.2864 45.0195C51.4512 45.0195 51.5429 44.829 51.4401 44.7002L37.1444 26.796C37.0657 26.6974 36.9158 26.6974 36.8371 26.796L22.5414 44.7002C22.4386 44.829 22.5303 45.0195 22.6951 45.0195H28.3072C28.4158 45.0195 28.5038 45.1075 28.5038 45.2161V55.4262C28.5038 55.5348 28.5919 55.6228 28.7005 55.6228H45.2863C45.3949 55.6228 45.4829 55.5348 45.4829 55.4262V45.2161C45.4829 45.1075 45.571 45.0195 45.6796 45.0195H51.2864Z"/>
</mask>
<path fill-rule="evenodd" clip-rule="evenodd" d="M51.2864 45.0195C51.4512 45.0195 51.5429 44.829 51.4401 44.7002L37.1444 26.796C37.0657 26.6974 36.9158 26.6974 36.8371 26.796L22.5414 44.7002C22.4386 44.829 22.5303 45.0195 22.6951 45.0195H28.3072C28.4158 45.0195 28.5038 45.1075 28.5038 45.2161V55.4262C28.5038 55.5348 28.5919 55.6228 28.7005 55.6228H45.2863C45.3949 55.6228 45.4829 55.5348 45.4829 55.4262V45.2161C45.4829 45.1075 45.571 45.0195 45.6796 45.0195H51.2864Z" fill="#0077C8"/>
<path d="M22.5414 44.7002L21.2598 43.6769L22.5414 44.7002ZM51.4401 44.7002L52.7217 43.6769L51.4401 44.7002ZM37.1444 26.796L38.426 25.7727L37.1444 26.796ZM36.8371 26.796L38.1187 27.8193L36.8371 26.796ZM35.8628 27.8193L50.1585 45.7235L52.7217 43.6769L38.426 25.7727L35.8628 27.8193ZM23.823 45.7235L38.1187 27.8193L35.5555 25.7727L21.2598 43.6769L23.823 45.7235ZM28.3072 43.3795H22.6951V46.6595H28.3072V43.3795ZM30.1438 55.4262V45.2161H26.8638V55.4262H30.1438ZM45.2863 53.9828H28.7005V57.2628H45.2863V53.9828ZM43.8429 45.2161V55.4262H47.1229V45.2161H43.8429ZM51.2864 43.3795H45.6796V46.6595H51.2864V43.3795ZM47.1229 45.2161C47.1229 46.0133 46.4767 46.6595 45.6796 46.6595V43.3795C44.6652 43.3795 43.8429 44.2018 43.8429 45.2161H47.1229ZM45.2863 57.2628C46.3006 57.2628 47.1229 56.4405 47.1229 55.4262H43.8429C43.8429 54.629 44.4891 53.9828 45.2863 53.9828V57.2628ZM26.8638 55.4262C26.8638 56.4405 27.6861 57.2628 28.7005 57.2628V53.9828C29.4976 53.9828 30.1438 54.629 30.1438 55.4262H26.8638ZM28.3072 46.6595C27.5101 46.6595 26.8638 46.0133 26.8638 45.2161H30.1438C30.1438 44.2018 29.3216 43.3795 28.3072 43.3795V46.6595ZM21.2598 43.6769C20.2994 44.8797 21.1558 46.6595 22.6951 46.6595V43.3795C23.9047 43.3795 24.5777 44.7782 23.823 45.7235L21.2598 43.6769ZM50.1585 45.7235C49.4037 44.7782 50.0768 43.3795 51.2864 43.3795V46.6595C52.8256 46.6595 53.6821 44.8797 52.7217 43.6769L50.1585 45.7235ZM38.426 25.7727C37.6907 24.8518 36.2907 24.8518 35.5555 25.7727L38.1187 27.8193C37.5408 28.5429 36.4406 28.5429 35.8628 27.8193L38.426 25.7727Z" fill="white" mask="url(#path-3-outside-1_1828_40713)"/>
</svg>
