<svg width="250" height="101" viewBox="0 0 250 101" fill="none" xmlns="http://www.w3.org/2000/svg">
<g filter="url(#filter0_dd_142_477)">
<rect x="2" y="1" width="41.2929" height="87.541" rx="2.64275" fill="white"/>
</g>
<g filter="url(#filter1_dd_142_477)">
<rect x="2" y="1" width="41.2929" height="87.541" rx="2.64275" fill="white"/>
</g>
<path d="M2 9.25879H43.2929V3.64295C43.2929 2.1834 42.1097 1.0002 40.6502 1.0002H4.64275C3.1832 1.0002 2 2.1834 2 3.64295V9.25879Z" fill="#3392D3"/>
<path opacity="0.25" d="M2 85.8985C2 87.3581 3.1832 88.5413 4.64275 88.5413H40.6502C42.1097 88.5413 43.2929 87.3581 43.2929 85.8985V78.1354H2V85.8985Z" fill="url(#paint0_linear_142_477)"/>
<circle cx="22.6821" cy="74.9985" r="8.29442" fill="#3392D3"/>
<path d="M22.0508 79.4854H24.1868V70.7254H20.8628V72.6334H22.0508V79.4854Z" fill="white"/>
<path d="M7.78125 17.9248H24.6288" stroke="#E0E0E0" stroke-width="0.825859" stroke-linecap="round"/>
<path d="M7.78125 32.4609H24.6288" stroke="#E0E0E0" stroke-width="0.825859" stroke-linecap="round"/>
<path d="M7.78125 47.3262H24.6288" stroke="#E0E0E0" stroke-width="0.825859" stroke-linecap="round"/>
<path d="M7.78125 24.3672H30.9053" stroke="#E0E0E0" stroke-width="0.825859" stroke-linecap="round"/>
<path d="M7.78125 38.9023H30.9053" stroke="#E0E0E0" stroke-width="0.825859" stroke-linecap="round"/>
<path d="M7.78125 53.7676H30.9053" stroke="#E0E0E0" stroke-width="0.825859" stroke-linecap="round"/>
<g filter="url(#filter2_dd_142_477)">
<rect x="53.293" y="1" width="41.2929" height="90.0186" rx="2.64275" fill="white"/>
</g>
<g filter="url(#filter3_dd_142_477)">
<rect x="53.293" y="1" width="41.2929" height="90.0186" rx="2.64275" fill="white"/>
</g>
<path d="M53.293 9.25879H94.5859V3.64295C94.5859 2.1834 93.4027 1.0002 91.9432 1.0002H55.9357C54.4762 1.0002 53.293 2.1834 53.293 3.64295V9.25879Z" fill="#1985CE"/>
<path opacity="0.25" d="M53.293 88.376C53.293 89.8356 54.4762 91.0188 55.9357 91.0188H91.9432C93.4027 91.0188 94.5859 89.8356 94.5859 88.376V78.1354H53.293V88.376Z" fill="url(#paint1_linear_142_477)"/>
<circle cx="73.9751" cy="77.477" r="8.29442" fill="#1985CE"/>
<path d="M71.1283 81.8439H77.1523V80.1759H73.9123C75.3043 79.1079 77.0203 77.5719 77.0203 75.6519C77.0203 74.1759 76.1323 73.0119 74.1403 73.0119C72.5443 73.0119 71.1643 73.9239 71.1043 76.0479H73.0843C73.0843 75.2199 73.4443 74.7399 74.0563 74.7399C74.6803 74.7399 74.9683 75.1479 74.9683 75.7839C74.9683 77.2599 72.9883 78.7839 71.1283 80.3199V81.8439Z" fill="white"/>
<path d="M58.9092 17.9248H75.7567" stroke="#E0E0E0" stroke-width="0.825859" stroke-linecap="round"/>
<path d="M58.9092 32.4609H75.7567" stroke="#E0E0E0" stroke-width="0.825859" stroke-linecap="round"/>
<path d="M58.9092 47.3262H75.7567" stroke="#E0E0E0" stroke-width="0.825859" stroke-linecap="round"/>
<path d="M58.9092 24.3672H82.0332" stroke="#E0E0E0" stroke-width="0.825859" stroke-linecap="round"/>
<path d="M58.9092 38.9023H82.0332" stroke="#E0E0E0" stroke-width="0.825859" stroke-linecap="round"/>
<path d="M58.9092 53.7676H82.0332" stroke="#E0E0E0" stroke-width="0.825859" stroke-linecap="round"/>
<g filter="url(#filter4_dd_142_477)">
<rect x="104.586" y="1" width="41.2929" height="92.4962" rx="2.64275" fill="white"/>
</g>
<g filter="url(#filter5_dd_142_477)">
<rect x="104.586" y="1" width="41.2929" height="92.4962" rx="2.64275" fill="white"/>
</g>
<path d="M104.586 9.25879H145.879V3.64295C145.879 2.1834 144.696 1.0002 143.236 1.0002H107.229C105.769 1.0002 104.586 2.1834 104.586 3.64295V9.25879Z" fill="#0077C8"/>
<path opacity="0.25" d="M104.586 90.8533C104.586 92.3129 105.769 93.4961 107.229 93.4961H143.236C144.696 93.4961 145.879 92.3129 145.879 90.8533V78.1351H104.586V90.8533Z" fill="url(#paint2_linear_142_477)"/>
<circle cx="125.233" cy="80.7798" r="8.29442" fill="#0077C8"/>
<path d="M122.182 78.9791H124.186C124.222 78.4991 124.462 78.0191 125.122 78.0191C125.674 78.0191 126.022 78.3431 126.022 78.9311C126.022 79.7231 125.35 79.8911 124.654 79.8911H124.27V81.5591H124.654C125.722 81.5591 126.19 81.8711 126.19 82.6511C126.19 83.2271 125.842 83.6351 125.206 83.6351C124.45 83.6351 124.078 83.1791 124.066 82.4951H122.074C122.134 84.4751 123.454 85.3391 125.278 85.3391C127.114 85.3391 128.17 84.2831 128.17 82.8071C128.17 81.6551 127.57 80.9831 126.694 80.6951V80.6471C127.294 80.4431 128.014 79.8311 128.014 78.6791C128.014 77.3591 127.018 76.3031 125.17 76.3031C123.382 76.3031 122.254 77.2511 122.182 78.9791Z" fill="white"/>
<path d="M110.367 17.9248H127.215" stroke="#E0E0E0" stroke-width="0.825859" stroke-linecap="round"/>
<path d="M110.367 32.4609H127.215" stroke="#E0E0E0" stroke-width="0.825859" stroke-linecap="round"/>
<path d="M110.367 47.3262H127.215" stroke="#E0E0E0" stroke-width="0.825859" stroke-linecap="round"/>
<path d="M110.367 24.3672H133.491" stroke="#E0E0E0" stroke-width="0.825859" stroke-linecap="round"/>
<path d="M110.367 38.9023H133.491" stroke="#E0E0E0" stroke-width="0.825859" stroke-linecap="round"/>
<path d="M110.367 53.7676H133.491" stroke="#E0E0E0" stroke-width="0.825859" stroke-linecap="round"/>
<g filter="url(#filter6_dd_142_477)">
<rect x="155.879" y="1" width="41.2929" height="94.9738" rx="2.64275" fill="white"/>
</g>
<g filter="url(#filter7_dd_142_477)">
<rect x="155.879" y="1" width="41.2929" height="94.9738" rx="2.64275" fill="white"/>
</g>
<path d="M155.879 9.25879H197.172V3.64295C197.172 2.1834 195.989 1.0002 194.529 1.0002H158.522C157.062 1.0002 155.879 2.1834 155.879 3.64295V9.25879Z" fill="#006BB4"/>
<path opacity="0.25" d="M155.879 93.3309C155.879 94.7904 157.062 95.9736 158.522 95.9736H194.529C195.989 95.9736 197.172 94.7904 197.172 93.3309V78.1351H155.879V93.3309Z" fill="url(#paint3_linear_142_477)"/>
<circle cx="176.561" cy="82.761" r="8.29442" fill="#006BB4"/>
<path d="M176.661 87.2485H178.713V85.6885H179.697V83.9125H178.713V78.6085H176.421L172.629 84.0325V85.6885H176.661V87.2485ZM174.789 83.9125L176.805 80.8645V83.9125H174.789Z" fill="white"/>
<path d="M161.66 17.9248H178.508" stroke="#E0E0E0" stroke-width="0.825859" stroke-linecap="round"/>
<path d="M161.66 32.4609H178.508" stroke="#E0E0E0" stroke-width="0.825859" stroke-linecap="round"/>
<path d="M161.66 47.3262H178.508" stroke="#E0E0E0" stroke-width="0.825859" stroke-linecap="round"/>
<path d="M161.66 24.3672H184.784" stroke="#E0E0E0" stroke-width="0.825859" stroke-linecap="round"/>
<path d="M161.66 38.9023H184.784" stroke="#E0E0E0" stroke-width="0.825859" stroke-linecap="round"/>
<path d="M161.66 53.7676H184.784" stroke="#E0E0E0" stroke-width="0.825859" stroke-linecap="round"/>
<g filter="url(#filter8_dd_142_477)">
<rect x="207.172" y="1" width="41.2929" height="97.4513" rx="2.64275" fill="white"/>
</g>
<g filter="url(#filter9_dd_142_477)">
<rect x="207.172" y="1" width="41.2929" height="97.4513" rx="2.64275" fill="white"/>
</g>
<path d="M207.172 9.25879H248.465V3.64295C248.465 2.1834 247.282 1.0002 245.822 1.0002H209.815C208.355 1.0002 207.172 2.1834 207.172 3.64295V9.25879Z" fill="#006BB4"/>
<path opacity="0.25" d="M207.172 95.8084C207.172 97.268 208.355 98.4512 209.815 98.4512H245.822C247.282 98.4512 248.465 97.268 248.465 95.8084V78.135H207.172V95.8084Z" fill="url(#paint4_linear_142_477)"/>
<circle cx="227.854" cy="85.2385" r="8.29442" fill="#006BB4"/>
<path d="M225.354 80.5362V85.4098H227.203C227.304 85.0289 227.617 84.7376 228.155 84.7376C228.838 84.7376 229.208 85.1297 229.208 85.8691C229.208 86.575 228.894 87.1015 228.166 87.1015C227.539 87.1015 227.214 86.7206 227.136 86.2949H225.265C225.332 87.7065 226.396 88.7261 228.233 88.7261C230.048 88.7261 231.057 87.6057 231.057 85.8803C231.057 84.5583 230.373 83.2027 228.592 83.2027C227.942 83.2027 227.382 83.4379 227.091 83.7628V82.2167H230.586V80.5362H225.354Z" fill="white"/>
<path d="M212.953 17.9248H229.801" stroke="#E0E0E0" stroke-width="0.825859" stroke-linecap="round"/>
<path d="M212.953 32.4609H229.801" stroke="#E0E0E0" stroke-width="0.825859" stroke-linecap="round"/>
<path d="M212.953 47.3262H229.801" stroke="#E0E0E0" stroke-width="0.825859" stroke-linecap="round"/>
<path d="M212.953 24.3672H236.077" stroke="#E0E0E0" stroke-width="0.825859" stroke-linecap="round"/>
<path d="M212.953 38.9023H236.077" stroke="#E0E0E0" stroke-width="0.825859" stroke-linecap="round"/>
<path d="M212.953 53.7676H236.077" stroke="#E0E0E0" stroke-width="0.825859" stroke-linecap="round"/>
<defs>
<filter id="filter0_dd_142_477" x="0.678626" y="0.339313" width="43.9357" height="90.1838" filterUnits="userSpaceOnUse" color-interpolation-filters="sRGB">
<feFlood flood-opacity="0" result="BackgroundImageFix"/>
<feColorMatrix in="SourceAlpha" type="matrix" values="0 0 0 0 0 0 0 0 0 0 0 0 0 0 0 0 0 0 127 0" result="hardAlpha"/>
<feOffset dy="0.660687"/>
<feGaussianBlur stdDeviation="0.660687"/>
<feColorMatrix type="matrix" values="0 0 0 0 0 0 0 0 0 0 0 0 0 0 0 0 0 0 0.16 0"/>
<feBlend mode="normal" in2="BackgroundImageFix" result="effect1_dropShadow_142_477"/>
<feColorMatrix in="SourceAlpha" type="matrix" values="0 0 0 0 0 0 0 0 0 0 0 0 0 0 0 0 0 0 127 0" result="hardAlpha"/>
<feOffset/>
<feGaussianBlur stdDeviation="0.165172"/>
<feColorMatrix type="matrix" values="0 0 0 0 0 0 0 0 0 0 0 0 0 0 0 0 0 0 0.04 0"/>
<feBlend mode="normal" in2="effect1_dropShadow_142_477" result="effect2_dropShadow_142_477"/>
<feBlend mode="normal" in="SourceGraphic" in2="effect2_dropShadow_142_477" result="shape"/>
</filter>
<filter id="filter1_dd_142_477" x="0.678626" y="0.339313" width="43.9357" height="90.1838" filterUnits="userSpaceOnUse" color-interpolation-filters="sRGB">
<feFlood flood-opacity="0" result="BackgroundImageFix"/>
<feColorMatrix in="SourceAlpha" type="matrix" values="0 0 0 0 0 0 0 0 0 0 0 0 0 0 0 0 0 0 127 0" result="hardAlpha"/>
<feOffset dy="0.660687"/>
<feGaussianBlur stdDeviation="0.660687"/>
<feColorMatrix type="matrix" values="0 0 0 0 0 0 0 0 0 0 0 0 0 0 0 0 0 0 0.16 0"/>
<feBlend mode="normal" in2="BackgroundImageFix" result="effect1_dropShadow_142_477"/>
<feColorMatrix in="SourceAlpha" type="matrix" values="0 0 0 0 0 0 0 0 0 0 0 0 0 0 0 0 0 0 127 0" result="hardAlpha"/>
<feOffset/>
<feGaussianBlur stdDeviation="0.165172"/>
<feColorMatrix type="matrix" values="0 0 0 0 0 0 0 0 0 0 0 0 0 0 0 0 0 0 0.04 0"/>
<feBlend mode="normal" in2="effect1_dropShadow_142_477" result="effect2_dropShadow_142_477"/>
<feBlend mode="normal" in="SourceGraphic" in2="effect2_dropShadow_142_477" result="shape"/>
</filter>
<filter id="filter2_dd_142_477" x="51.9716" y="0.339313" width="43.9357" height="92.6613" filterUnits="userSpaceOnUse" color-interpolation-filters="sRGB">
<feFlood flood-opacity="0" result="BackgroundImageFix"/>
<feColorMatrix in="SourceAlpha" type="matrix" values="0 0 0 0 0 0 0 0 0 0 0 0 0 0 0 0 0 0 127 0" result="hardAlpha"/>
<feOffset dy="0.660687"/>
<feGaussianBlur stdDeviation="0.660687"/>
<feColorMatrix type="matrix" values="0 0 0 0 0 0 0 0 0 0 0 0 0 0 0 0 0 0 0.16 0"/>
<feBlend mode="normal" in2="BackgroundImageFix" result="effect1_dropShadow_142_477"/>
<feColorMatrix in="SourceAlpha" type="matrix" values="0 0 0 0 0 0 0 0 0 0 0 0 0 0 0 0 0 0 127 0" result="hardAlpha"/>
<feOffset/>
<feGaussianBlur stdDeviation="0.165172"/>
<feColorMatrix type="matrix" values="0 0 0 0 0 0 0 0 0 0 0 0 0 0 0 0 0 0 0.04 0"/>
<feBlend mode="normal" in2="effect1_dropShadow_142_477" result="effect2_dropShadow_142_477"/>
<feBlend mode="normal" in="SourceGraphic" in2="effect2_dropShadow_142_477" result="shape"/>
</filter>
<filter id="filter3_dd_142_477" x="51.9716" y="0.339313" width="43.9357" height="92.6613" filterUnits="userSpaceOnUse" color-interpolation-filters="sRGB">
<feFlood flood-opacity="0" result="BackgroundImageFix"/>
<feColorMatrix in="SourceAlpha" type="matrix" values="0 0 0 0 0 0 0 0 0 0 0 0 0 0 0 0 0 0 127 0" result="hardAlpha"/>
<feOffset dy="0.660687"/>
<feGaussianBlur stdDeviation="0.660687"/>
<feColorMatrix type="matrix" values="0 0 0 0 0 0 0 0 0 0 0 0 0 0 0 0 0 0 0.16 0"/>
<feBlend mode="normal" in2="BackgroundImageFix" result="effect1_dropShadow_142_477"/>
<feColorMatrix in="SourceAlpha" type="matrix" values="0 0 0 0 0 0 0 0 0 0 0 0 0 0 0 0 0 0 127 0" result="hardAlpha"/>
<feOffset/>
<feGaussianBlur stdDeviation="0.165172"/>
<feColorMatrix type="matrix" values="0 0 0 0 0 0 0 0 0 0 0 0 0 0 0 0 0 0 0.04 0"/>
<feBlend mode="normal" in2="effect1_dropShadow_142_477" result="effect2_dropShadow_142_477"/>
<feBlend mode="normal" in="SourceGraphic" in2="effect2_dropShadow_142_477" result="shape"/>
</filter>
<filter id="filter4_dd_142_477" x="103.265" y="0.339313" width="43.9357" height="95.1388" filterUnits="userSpaceOnUse" color-interpolation-filters="sRGB">
<feFlood flood-opacity="0" result="BackgroundImageFix"/>
<feColorMatrix in="SourceAlpha" type="matrix" values="0 0 0 0 0 0 0 0 0 0 0 0 0 0 0 0 0 0 127 0" result="hardAlpha"/>
<feOffset dy="0.660687"/>
<feGaussianBlur stdDeviation="0.660687"/>
<feColorMatrix type="matrix" values="0 0 0 0 0 0 0 0 0 0 0 0 0 0 0 0 0 0 0.16 0"/>
<feBlend mode="normal" in2="BackgroundImageFix" result="effect1_dropShadow_142_477"/>
<feColorMatrix in="SourceAlpha" type="matrix" values="0 0 0 0 0 0 0 0 0 0 0 0 0 0 0 0 0 0 127 0" result="hardAlpha"/>
<feOffset/>
<feGaussianBlur stdDeviation="0.165172"/>
<feColorMatrix type="matrix" values="0 0 0 0 0 0 0 0 0 0 0 0 0 0 0 0 0 0 0.04 0"/>
<feBlend mode="normal" in2="effect1_dropShadow_142_477" result="effect2_dropShadow_142_477"/>
<feBlend mode="normal" in="SourceGraphic" in2="effect2_dropShadow_142_477" result="shape"/>
</filter>
<filter id="filter5_dd_142_477" x="103.265" y="0.339313" width="43.9357" height="95.1388" filterUnits="userSpaceOnUse" color-interpolation-filters="sRGB">
<feFlood flood-opacity="0" result="BackgroundImageFix"/>
<feColorMatrix in="SourceAlpha" type="matrix" values="0 0 0 0 0 0 0 0 0 0 0 0 0 0 0 0 0 0 127 0" result="hardAlpha"/>
<feOffset dy="0.660687"/>
<feGaussianBlur stdDeviation="0.660687"/>
<feColorMatrix type="matrix" values="0 0 0 0 0 0 0 0 0 0 0 0 0 0 0 0 0 0 0.16 0"/>
<feBlend mode="normal" in2="BackgroundImageFix" result="effect1_dropShadow_142_477"/>
<feColorMatrix in="SourceAlpha" type="matrix" values="0 0 0 0 0 0 0 0 0 0 0 0 0 0 0 0 0 0 127 0" result="hardAlpha"/>
<feOffset/>
<feGaussianBlur stdDeviation="0.165172"/>
<feColorMatrix type="matrix" values="0 0 0 0 0 0 0 0 0 0 0 0 0 0 0 0 0 0 0.04 0"/>
<feBlend mode="normal" in2="effect1_dropShadow_142_477" result="effect2_dropShadow_142_477"/>
<feBlend mode="normal" in="SourceGraphic" in2="effect2_dropShadow_142_477" result="shape"/>
</filter>
<filter id="filter6_dd_142_477" x="154.558" y="0.339313" width="43.9357" height="97.6166" filterUnits="userSpaceOnUse" color-interpolation-filters="sRGB">
<feFlood flood-opacity="0" result="BackgroundImageFix"/>
<feColorMatrix in="SourceAlpha" type="matrix" values="0 0 0 0 0 0 0 0 0 0 0 0 0 0 0 0 0 0 127 0" result="hardAlpha"/>
<feOffset dy="0.660687"/>
<feGaussianBlur stdDeviation="0.660687"/>
<feColorMatrix type="matrix" values="0 0 0 0 0 0 0 0 0 0 0 0 0 0 0 0 0 0 0.16 0"/>
<feBlend mode="normal" in2="BackgroundImageFix" result="effect1_dropShadow_142_477"/>
<feColorMatrix in="SourceAlpha" type="matrix" values="0 0 0 0 0 0 0 0 0 0 0 0 0 0 0 0 0 0 127 0" result="hardAlpha"/>
<feOffset/>
<feGaussianBlur stdDeviation="0.165172"/>
<feColorMatrix type="matrix" values="0 0 0 0 0 0 0 0 0 0 0 0 0 0 0 0 0 0 0.04 0"/>
<feBlend mode="normal" in2="effect1_dropShadow_142_477" result="effect2_dropShadow_142_477"/>
<feBlend mode="normal" in="SourceGraphic" in2="effect2_dropShadow_142_477" result="shape"/>
</filter>
<filter id="filter7_dd_142_477" x="154.558" y="0.339313" width="43.9357" height="97.6166" filterUnits="userSpaceOnUse" color-interpolation-filters="sRGB">
<feFlood flood-opacity="0" result="BackgroundImageFix"/>
<feColorMatrix in="SourceAlpha" type="matrix" values="0 0 0 0 0 0 0 0 0 0 0 0 0 0 0 0 0 0 127 0" result="hardAlpha"/>
<feOffset dy="0.660687"/>
<feGaussianBlur stdDeviation="0.660687"/>
<feColorMatrix type="matrix" values="0 0 0 0 0 0 0 0 0 0 0 0 0 0 0 0 0 0 0.16 0"/>
<feBlend mode="normal" in2="BackgroundImageFix" result="effect1_dropShadow_142_477"/>
<feColorMatrix in="SourceAlpha" type="matrix" values="0 0 0 0 0 0 0 0 0 0 0 0 0 0 0 0 0 0 127 0" result="hardAlpha"/>
<feOffset/>
<feGaussianBlur stdDeviation="0.165172"/>
<feColorMatrix type="matrix" values="0 0 0 0 0 0 0 0 0 0 0 0 0 0 0 0 0 0 0.04 0"/>
<feBlend mode="normal" in2="effect1_dropShadow_142_477" result="effect2_dropShadow_142_477"/>
<feBlend mode="normal" in="SourceGraphic" in2="effect2_dropShadow_142_477" result="shape"/>
</filter>
<filter id="filter8_dd_142_477" x="205.851" y="0.339313" width="43.9357" height="100.094" filterUnits="userSpaceOnUse" color-interpolation-filters="sRGB">
<feFlood flood-opacity="0" result="BackgroundImageFix"/>
<feColorMatrix in="SourceAlpha" type="matrix" values="0 0 0 0 0 0 0 0 0 0 0 0 0 0 0 0 0 0 127 0" result="hardAlpha"/>
<feOffset dy="0.660687"/>
<feGaussianBlur stdDeviation="0.660687"/>
<feColorMatrix type="matrix" values="0 0 0 0 0 0 0 0 0 0 0 0 0 0 0 0 0 0 0.16 0"/>
<feBlend mode="normal" in2="BackgroundImageFix" result="effect1_dropShadow_142_477"/>
<feColorMatrix in="SourceAlpha" type="matrix" values="0 0 0 0 0 0 0 0 0 0 0 0 0 0 0 0 0 0 127 0" result="hardAlpha"/>
<feOffset/>
<feGaussianBlur stdDeviation="0.165172"/>
<feColorMatrix type="matrix" values="0 0 0 0 0 0 0 0 0 0 0 0 0 0 0 0 0 0 0.04 0"/>
<feBlend mode="normal" in2="effect1_dropShadow_142_477" result="effect2_dropShadow_142_477"/>
<feBlend mode="normal" in="SourceGraphic" in2="effect2_dropShadow_142_477" result="shape"/>
</filter>
<filter id="filter9_dd_142_477" x="205.851" y="0.339313" width="43.9357" height="100.094" filterUnits="userSpaceOnUse" color-interpolation-filters="sRGB">
<feFlood flood-opacity="0" result="BackgroundImageFix"/>
<feColorMatrix in="SourceAlpha" type="matrix" values="0 0 0 0 0 0 0 0 0 0 0 0 0 0 0 0 0 0 127 0" result="hardAlpha"/>
<feOffset dy="0.660687"/>
<feGaussianBlur stdDeviation="0.660687"/>
<feColorMatrix type="matrix" values="0 0 0 0 0 0 0 0 0 0 0 0 0 0 0 0 0 0 0.16 0"/>
<feBlend mode="normal" in2="BackgroundImageFix" result="effect1_dropShadow_142_477"/>
<feColorMatrix in="SourceAlpha" type="matrix" values="0 0 0 0 0 0 0 0 0 0 0 0 0 0 0 0 0 0 127 0" result="hardAlpha"/>
<feOffset/>
<feGaussianBlur stdDeviation="0.165172"/>
<feColorMatrix type="matrix" values="0 0 0 0 0 0 0 0 0 0 0 0 0 0 0 0 0 0 0.04 0"/>
<feBlend mode="normal" in2="effect1_dropShadow_142_477" result="effect2_dropShadow_142_477"/>
<feBlend mode="normal" in="SourceGraphic" in2="effect2_dropShadow_142_477" result="shape"/>
</filter>
<linearGradient id="paint0_linear_142_477" x1="22.6465" y1="88.5413" x2="22.6465" y2="78.1354" gradientUnits="userSpaceOnUse">
<stop stop-color="#D2D5D7"/>
<stop offset="1" stop-color="white"/>
</linearGradient>
<linearGradient id="paint1_linear_142_477" x1="73.9394" y1="91.0188" x2="73.9394" y2="78.1354" gradientUnits="userSpaceOnUse">
<stop stop-color="#D2D5D7"/>
<stop offset="1" stop-color="white"/>
</linearGradient>
<linearGradient id="paint2_linear_142_477" x1="125.232" y1="93.4961" x2="125.232" y2="78.1351" gradientUnits="userSpaceOnUse">
<stop stop-color="#D2D5D7"/>
<stop offset="1" stop-color="white"/>
</linearGradient>
<linearGradient id="paint3_linear_142_477" x1="176.525" y1="95.9736" x2="176.525" y2="78.1351" gradientUnits="userSpaceOnUse">
<stop stop-color="#D2D5D7"/>
<stop offset="1" stop-color="white"/>
</linearGradient>
<linearGradient id="paint4_linear_142_477" x1="227.818" y1="98.4512" x2="227.818" y2="78.135" gradientUnits="userSpaceOnUse">
<stop stop-color="#D2D5D7"/>
<stop offset="1" stop-color="white"/>
</linearGradient>
</defs>
</svg>
