<svg width="416" height="254" viewBox="0 0 416 254" fill="none" xmlns="http://www.w3.org/2000/svg">
<g filter="url(#filter0_dd_1828_40909)">
<rect x="20" y="20" width="375.831" height="213.821" rx="9.86865" fill="white"/>
<circle cx="208" cy="143" r="55" fill="#0077C8"/>
<path fill-rule="evenodd" clip-rule="evenodd" d="M179.962 117.724H239.6C241.35 117.724 242.781 119.126 242.781 120.84V160.572C242.781 162.286 241.35 163.688 239.6 163.688H179.962C178.212 163.688 176.781 162.286 176.781 160.572V120.84C176.781 119.126 178.212 117.724 179.962 117.724ZM179.963 120.06C179.532 120.06 179.168 120.417 179.168 120.839V124.735H240.397V120.839C240.397 120.417 240.032 120.06 239.602 120.06H179.963ZM240.397 160.572C240.397 160.995 240.033 161.351 239.602 161.351H179.963C179.532 161.351 179.168 160.995 179.168 160.572V136.422H240.397V160.572ZM179.168 134.083H240.397V127.072H179.168V134.083Z" fill="white"/>
<path d="M202.708 147.188H183.85C183.2 147.188 182.672 147.716 182.672 148.366C182.672 149.017 183.2 149.545 183.85 149.545H202.708C203.358 149.545 203.886 149.017 203.886 148.366C203.886 147.716 203.358 147.188 202.708 147.188Z" fill="white"/>
<path d="M192.143 151.902H183.808C183.181 151.902 182.672 152.43 182.672 153.08C182.672 153.731 183.181 154.259 183.808 154.259H192.143C192.77 154.259 193.279 153.731 193.279 153.08C193.279 152.43 192.77 151.902 192.143 151.902Z" fill="white"/>
<path d="M124.418 60.848C125.666 60.848 126.656 61.226 127.388 61.982C128.132 62.738 128.504 63.788 128.504 65.132V71H125.444V65.546C125.444 64.898 125.27 64.4 124.922 64.052C124.586 63.692 124.118 63.512 123.518 63.512C122.918 63.512 122.444 63.692 122.096 64.052C121.76 64.4 121.592 64.898 121.592 65.546V71H118.532V65.546C118.532 64.898 118.358 64.4 118.01 64.052C117.674 63.692 117.206 63.512 116.606 63.512C116.006 63.512 115.532 63.692 115.184 64.052C114.848 64.4 114.68 64.898 114.68 65.546V71H111.602V60.956H114.68V62.216C114.992 61.796 115.4 61.466 115.904 61.226C116.408 60.974 116.978 60.848 117.614 60.848C118.37 60.848 119.042 61.01 119.63 61.334C120.23 61.658 120.698 62.12 121.034 62.72C121.382 62.168 121.856 61.718 122.456 61.37C123.056 61.022 123.71 60.848 124.418 60.848ZM130.045 65.96C130.045 64.928 130.237 64.022 130.621 63.242C131.017 62.462 131.551 61.862 132.223 61.442C132.895 61.022 133.645 60.812 134.473 60.812C135.181 60.812 135.799 60.956 136.327 61.244C136.867 61.532 137.281 61.91 137.569 62.378V60.956H140.647V71H137.569V69.578C137.269 70.046 136.849 70.424 136.309 70.712C135.781 71 135.163 71.144 134.455 71.144C133.639 71.144 132.895 70.934 132.223 70.514C131.551 70.082 131.017 69.476 130.621 68.696C130.237 67.904 130.045 66.992 130.045 65.96ZM137.569 65.978C137.569 65.21 137.353 64.604 136.921 64.16C136.501 63.716 135.985 63.494 135.373 63.494C134.761 63.494 134.239 63.716 133.807 64.16C133.387 64.592 133.177 65.192 133.177 65.96C133.177 66.728 133.387 67.34 133.807 67.796C134.239 68.24 134.761 68.462 135.373 68.462C135.985 68.462 136.501 68.24 136.921 67.796C137.353 67.352 137.569 66.746 137.569 65.978ZM148.994 60.848C150.17 60.848 151.106 61.232 151.802 62C152.51 62.756 152.864 63.8 152.864 65.132V71H149.804V65.546C149.804 64.874 149.63 64.352 149.282 63.98C148.934 63.608 148.466 63.422 147.878 63.422C147.29 63.422 146.822 63.608 146.474 63.98C146.126 64.352 145.952 64.874 145.952 65.546V71H142.874V60.956H145.952V62.288C146.264 61.844 146.684 61.496 147.212 61.244C147.74 60.98 148.334 60.848 148.994 60.848ZM154.391 65.96C154.391 64.928 154.583 64.022 154.967 63.242C155.363 62.462 155.897 61.862 156.569 61.442C157.241 61.022 157.991 60.812 158.819 60.812C159.527 60.812 160.145 60.956 160.673 61.244C161.213 61.532 161.627 61.91 161.915 62.378V60.956H164.993V71H161.915V69.578C161.615 70.046 161.195 70.424 160.655 70.712C160.127 71 159.509 71.144 158.801 71.144C157.985 71.144 157.241 70.934 156.569 70.514C155.897 70.082 155.363 69.476 154.967 68.696C154.583 67.904 154.391 66.992 154.391 65.96ZM161.915 65.978C161.915 65.21 161.699 64.604 161.267 64.16C160.847 63.716 160.331 63.494 159.719 63.494C159.107 63.494 158.585 63.716 158.153 64.16C157.733 64.592 157.523 65.192 157.523 65.96C157.523 66.728 157.733 67.34 158.153 67.796C158.585 68.24 159.107 68.462 159.719 68.462C160.331 68.462 160.847 68.24 161.267 67.796C161.699 67.352 161.915 66.746 161.915 65.978ZM171.036 60.812C171.744 60.812 172.362 60.956 172.89 61.244C173.43 61.532 173.844 61.91 174.132 62.378V60.956H177.21V70.982C177.21 71.906 177.024 72.74 176.652 73.484C176.292 74.24 175.734 74.84 174.978 75.284C174.234 75.728 173.304 75.95 172.188 75.95C170.7 75.95 169.494 75.596 168.57 74.888C167.646 74.192 167.118 73.244 166.986 72.044H170.028C170.124 72.428 170.352 72.728 170.712 72.944C171.072 73.172 171.516 73.286 172.044 73.286C172.68 73.286 173.184 73.1 173.556 72.728C173.94 72.368 174.132 71.786 174.132 70.982V69.56C173.832 70.028 173.418 70.412 172.89 70.712C172.362 71 171.744 71.144 171.036 71.144C170.208 71.144 169.458 70.934 168.786 70.514C168.114 70.082 167.58 69.476 167.184 68.696C166.8 67.904 166.608 66.992 166.608 65.96C166.608 64.928 166.8 64.022 167.184 63.242C167.58 62.462 168.114 61.862 168.786 61.442C169.458 61.022 170.208 60.812 171.036 60.812ZM174.132 65.978C174.132 65.21 173.916 64.604 173.484 64.16C173.064 63.716 172.548 63.494 171.936 63.494C171.324 63.494 170.802 63.716 170.37 64.16C169.95 64.592 169.74 65.192 169.74 65.96C169.74 66.728 169.95 67.34 170.37 67.796C170.802 68.24 171.324 68.462 171.936 68.462C172.548 68.462 173.064 68.24 173.484 67.796C173.916 67.352 174.132 66.746 174.132 65.978ZM188.904 65.816C188.904 66.104 188.886 66.404 188.85 66.716H181.884C181.932 67.34 182.13 67.82 182.478 68.156C182.838 68.48 183.276 68.642 183.792 68.642C184.56 68.642 185.094 68.318 185.394 67.67H188.67C188.502 68.33 188.196 68.924 187.752 69.452C187.32 69.98 186.774 70.394 186.114 70.694C185.454 70.994 184.716 71.144 183.9 71.144C182.916 71.144 182.04 70.934 181.272 70.514C180.504 70.094 179.904 69.494 179.472 68.714C179.04 67.934 178.824 67.022 178.824 65.978C178.824 64.934 179.034 64.022 179.454 63.242C179.886 62.462 180.486 61.862 181.254 61.442C182.022 61.022 182.904 60.812 183.9 60.812C184.872 60.812 185.736 61.016 186.492 61.424C187.248 61.832 187.836 62.414 188.256 63.17C188.688 63.926 188.904 64.808 188.904 65.816ZM185.754 65.006C185.754 64.478 185.574 64.058 185.214 63.746C184.854 63.434 184.404 63.278 183.864 63.278C183.348 63.278 182.91 63.428 182.55 63.728C182.202 64.028 181.986 64.454 181.902 65.006H185.754ZM207.159 60.848C208.407 60.848 209.397 61.226 210.129 61.982C210.873 62.738 211.245 63.788 211.245 65.132V71H208.185V65.546C208.185 64.898 208.011 64.4 207.663 64.052C207.327 63.692 206.859 63.512 206.259 63.512C205.659 63.512 205.185 63.692 204.837 64.052C204.501 64.4 204.333 64.898 204.333 65.546V71H201.273V65.546C201.273 64.898 201.099 64.4 200.751 64.052C200.415 63.692 199.947 63.512 199.347 63.512C198.747 63.512 198.273 63.692 197.925 64.052C197.589 64.4 197.421 64.898 197.421 65.546V71H194.343V60.956H197.421V62.216C197.733 61.796 198.141 61.466 198.645 61.226C199.149 60.974 199.719 60.848 200.355 60.848C201.111 60.848 201.783 61.01 202.371 61.334C202.971 61.658 203.439 62.12 203.775 62.72C204.123 62.168 204.597 61.718 205.197 61.37C205.797 61.022 206.451 60.848 207.159 60.848ZM223.657 60.956L217.357 75.77H214.045L216.349 70.658L212.263 60.956H215.701L218.023 67.238L220.327 60.956H223.657ZM227.973 65.96C227.973 64.928 228.165 64.022 228.549 63.242C228.945 62.462 229.479 61.862 230.151 61.442C230.823 61.022 231.573 60.812 232.401 60.812C233.109 60.812 233.727 60.956 234.255 61.244C234.795 61.532 235.209 61.91 235.497 62.378V60.956H238.575V71H235.497V69.578C235.197 70.046 234.777 70.424 234.237 70.712C233.709 71 233.091 71.144 232.383 71.144C231.567 71.144 230.823 70.934 230.151 70.514C229.479 70.082 228.945 69.476 228.549 68.696C228.165 67.904 227.973 66.992 227.973 65.96ZM235.497 65.978C235.497 65.21 235.281 64.604 234.849 64.16C234.429 63.716 233.913 63.494 233.301 63.494C232.689 63.494 232.167 63.716 231.735 64.16C231.315 64.592 231.105 65.192 231.105 65.96C231.105 66.728 231.315 67.34 231.735 67.796C232.167 68.24 232.689 68.462 233.301 68.462C233.913 68.462 234.429 68.24 234.849 67.796C235.281 67.352 235.497 66.746 235.497 65.978ZM240.19 65.978C240.19 64.934 240.4 64.022 240.82 63.242C241.252 62.462 241.846 61.862 242.602 61.442C243.37 61.022 244.246 60.812 245.23 60.812C246.49 60.812 247.54 61.142 248.38 61.802C249.232 62.462 249.79 63.392 250.054 64.592H246.778C246.502 63.824 245.968 63.44 245.176 63.44C244.612 63.44 244.162 63.662 243.826 64.106C243.49 64.538 243.322 65.162 243.322 65.978C243.322 66.794 243.49 67.424 243.826 67.868C244.162 68.3 244.612 68.516 245.176 68.516C245.968 68.516 246.502 68.132 246.778 67.364H250.054C249.79 68.54 249.232 69.464 248.38 70.136C247.528 70.808 246.478 71.144 245.23 71.144C244.246 71.144 243.37 70.934 242.602 70.514C241.846 70.094 241.252 69.494 240.82 68.714C240.4 67.934 240.19 67.022 240.19 65.978ZM251.088 65.978C251.088 64.934 251.298 64.022 251.718 63.242C252.15 62.462 252.744 61.862 253.5 61.442C254.268 61.022 255.144 60.812 256.128 60.812C257.388 60.812 258.438 61.142 259.278 61.802C260.13 62.462 260.688 63.392 260.952 64.592H257.676C257.4 63.824 256.866 63.44 256.074 63.44C255.51 63.44 255.06 63.662 254.724 64.106C254.388 64.538 254.22 65.162 254.22 65.978C254.22 66.794 254.388 67.424 254.724 67.868C255.06 68.3 255.51 68.516 256.074 68.516C256.866 68.516 257.4 68.132 257.676 67.364H260.952C260.688 68.54 260.13 69.464 259.278 70.136C258.426 70.808 257.376 71.144 256.128 71.144C255.144 71.144 254.268 70.934 253.5 70.514C252.744 70.094 252.15 69.494 251.718 68.714C251.298 67.934 251.088 67.022 251.088 65.978ZM267.17 71.144C266.186 71.144 265.298 70.934 264.506 70.514C263.726 70.094 263.108 69.494 262.652 68.714C262.208 67.934 261.986 67.022 261.986 65.978C261.986 64.946 262.214 64.04 262.67 63.26C263.126 62.468 263.75 61.862 264.542 61.442C265.334 61.022 266.222 60.812 267.206 60.812C268.19 60.812 269.078 61.022 269.87 61.442C270.662 61.862 271.286 62.468 271.742 63.26C272.198 64.04 272.426 64.946 272.426 65.978C272.426 67.01 272.192 67.922 271.724 68.714C271.268 69.494 270.638 70.094 269.834 70.514C269.042 70.934 268.154 71.144 267.17 71.144ZM267.17 68.48C267.758 68.48 268.256 68.264 268.664 67.832C269.084 67.4 269.294 66.782 269.294 65.978C269.294 65.174 269.09 64.556 268.682 64.124C268.286 63.692 267.794 63.476 267.206 63.476C266.606 63.476 266.108 63.692 265.712 64.124C265.316 64.544 265.118 65.162 265.118 65.978C265.118 66.782 265.31 67.4 265.694 67.832C266.09 68.264 266.582 68.48 267.17 68.48ZM283.977 60.956V71H280.899V69.632C280.587 70.076 280.161 70.436 279.621 70.712C279.093 70.976 278.505 71.108 277.857 71.108C277.089 71.108 276.411 70.94 275.823 70.604C275.235 70.256 274.779 69.758 274.455 69.11C274.131 68.462 273.969 67.7 273.969 66.824V60.956H277.029V66.41C277.029 67.082 277.203 67.604 277.551 67.976C277.899 68.348 278.367 68.534 278.955 68.534C279.555 68.534 280.029 68.348 280.377 67.976C280.725 67.604 280.899 67.082 280.899 66.41V60.956H283.977ZM292.308 60.848C293.484 60.848 294.42 61.232 295.116 62C295.824 62.756 296.178 63.8 296.178 65.132V71H293.118V65.546C293.118 64.874 292.944 64.352 292.596 63.98C292.248 63.608 291.78 63.422 291.192 63.422C290.604 63.422 290.136 63.608 289.788 63.98C289.44 64.352 289.266 64.874 289.266 65.546V71H286.188V60.956H289.266V62.288C289.578 61.844 289.998 61.496 290.526 61.244C291.054 60.98 291.648 60.848 292.308 60.848ZM303.915 68.39V71H302.349C301.233 71 300.363 70.73 299.739 70.19C299.115 69.638 298.803 68.744 298.803 67.508V63.512H297.579V60.956H298.803V58.508H301.881V60.956H303.897V63.512H301.881V67.544C301.881 67.844 301.953 68.06 302.097 68.192C302.241 68.324 302.481 68.39 302.817 68.39H303.915Z" fill="#0077C8"/>
</g>
<defs>
<filter id="filter0_dd_1828_40909" x="0" y="0" width="415.831" height="253.821" filterUnits="userSpaceOnUse" color-interpolation-filters="sRGB">
<feFlood flood-opacity="0" result="BackgroundImageFix"/>
<feColorMatrix in="SourceAlpha" type="matrix" values="0 0 0 0 0 0 0 0 0 0 0 0 0 0 0 0 0 0 127 0" result="hardAlpha"/>
<feOffset dy="1"/>
<feGaussianBlur stdDeviation="3.5"/>
<feComposite in2="hardAlpha" operator="out"/>
<feColorMatrix type="matrix" values="0 0 0 0 0 0 0 0 0 0 0 0 0 0 0 0 0 0 0.1 0"/>
<feBlend mode="normal" in2="BackgroundImageFix" result="effect1_dropShadow_1828_40909"/>
<feColorMatrix in="SourceAlpha" type="matrix" values="0 0 0 0 0 0 0 0 0 0 0 0 0 0 0 0 0 0 127 0" result="hardAlpha"/>
<feOffset/>
<feGaussianBlur stdDeviation="10"/>
<feComposite in2="hardAlpha" operator="out"/>
<feColorMatrix type="matrix" values="0 0 0 0 0 0 0 0 0 0 0 0 0 0 0 0 0 0 0.05 0"/>
<feBlend mode="normal" in2="effect1_dropShadow_1828_40909" result="effect2_dropShadow_1828_40909"/>
<feBlend mode="normal" in="SourceGraphic" in2="effect2_dropShadow_1828_40909" result="shape"/>
</filter>
</defs>
</svg>
