<svg width="100" height="100" viewBox="0 0 100 100" fill="none" xmlns="http://www.w3.org/2000/svg">
<ellipse cx="50" cy="49.9995" rx="50" ry="49.9995" fill="#0077C8"/>
<path fill-rule="evenodd" clip-rule="evenodd" d="M21.7773 46.8201H26.7353V48.6767H26.799C27.2436 47.8271 28.1657 46.2217 31.2164 46.2217V51.4791C28.7687 51.5416 27.0531 52.0451 27.0531 54.6894V64.2903H21.7773V46.8201ZM51.0463 46.8201H45.7711V48.6767H45.7068C45.0716 47.6066 43.4508 46.2217 40.559 46.2217C35.8553 46.2217 31.6914 49.8105 31.6914 55.5396C31.6914 60.5446 34.9653 64.8881 40.559 64.8881C42.6245 64.8881 44.8169 64.1016 45.7068 62.4018H45.7711V64.2903H51.0463V46.8201ZM36.9686 55.6023C36.9686 53.6195 38.3037 51.1013 41.3229 51.1013C44.3099 51.1013 45.7724 53.4302 45.7724 55.5398C45.7724 57.239 44.6593 60.0095 41.3544 60.0095C38.1763 60.0095 36.9686 57.239 36.9686 55.6023ZM53.4961 64.2903H58.7712V46.8202H53.4961V64.2903ZM60.9961 64.2903H66.2713V54.7837C66.2713 53.7136 66.2713 51.1324 69.291 51.1324C72.0554 51.1324 72.0554 53.525 72.0554 54.7525V64.2903H77.3318V53.3675C77.3318 49.9367 76.2508 48.5512 75.2978 47.7328C74.3442 46.9145 72.4691 46.2217 70.7845 46.2217C67.6386 46.2217 66.5261 47.8271 65.9855 48.6767H65.9219V46.8201H60.9961V64.2903Z" fill="white"/>
<path fill-rule="evenodd" clip-rule="evenodd" d="M59.1089 42.6658C59.1089 40.9476 57.716 39.5547 55.9978 39.5547C54.2796 39.5547 52.8867 40.9476 52.8867 42.6658C52.8867 44.3839 54.2796 45.7768 55.9978 45.7768C57.716 45.7768 59.1089 44.3839 59.1089 42.6658Z" fill="#BBBCBC"/>
<path d="M31.9875 28.8445C32.6615 28.8445 33.263 28.9845 33.7919 29.2645C34.3312 29.5445 34.7512 29.9593 35.0519 30.5089C35.363 31.0585 35.5186 31.7222 35.5186 32.5V37.5555H33.7608V32.7645C33.7608 31.9971 33.5689 31.4111 33.1852 31.0067C32.8015 30.5919 32.2778 30.3845 31.6141 30.3845C30.9504 30.3845 30.4216 30.5919 30.0275 31.0067C29.6438 31.4111 29.4519 31.9971 29.4519 32.7645V37.5555H27.6942V32.7645C27.6942 31.9971 27.5023 31.4111 27.1186 31.0067C26.7349 30.5919 26.2112 30.3845 25.5475 30.3845C24.8838 30.3845 24.3549 30.5919 23.9608 31.0067C23.5771 31.4111 23.3853 31.9971 23.3853 32.7645V37.5555H21.612V28.9845H23.3853V29.9645C23.6757 29.6119 24.0438 29.3371 24.4897 29.14C24.9357 28.943 25.4127 28.8445 25.9208 28.8445C26.6053 28.8445 27.2171 28.9897 27.7564 29.28C28.2956 29.5704 28.7105 29.9904 29.0008 30.54C29.2601 30.0215 29.6645 29.6119 30.2142 29.3111C30.7638 29 31.3549 28.8445 31.9875 28.8445ZM45.2684 28.9845L40.0106 41.5844H38.1751L39.9173 37.4155L36.5418 28.9845H38.5173L40.9284 35.5178L43.4328 28.9845H45.2684Z" fill="white"/>
</svg>
