<svg width="325" height="77" viewBox="0 0 325 77" fill="none" xmlns="http://www.w3.org/2000/svg">
<path d="M319.262 48.7189C319.262 32.924 307.71 20.3867 291.979 20.3867C281.508 20.3867 273.004 26.3098 268.457 34.5281C265.581 26.4085 256.438 20.4608 245.598 20.3867C234.734 20.4361 225.59 26.4085 222.715 34.5281C218.487 26.8281 210.474 20.7322 198.43 20.7322C179.627 20.7322 170.582 35.5894 170.582 48.2994C170.582 61.0094 179.603 75.8665 198.43 75.8665C209.614 75.8665 217.332 70.6097 221.756 63.6995V74.287H237.266V49.8789C237.266 46.6952 236.725 36.7493 245.573 36.7493C254.422 36.7493 253.881 46.6952 253.881 49.8789V74.287H269.391V63.3293C274.331 70.8319 282.836 75.6938 292.25 75.6938C297.559 75.6938 302.671 74.1143 306.948 71.0293C309.75 69.129 312.233 66.587 314.322 63.502L301.786 57.5789C299.648 60.2443 296.944 62.6136 292.225 62.6136C286.179 62.6136 281.042 58.961 280.132 52.7911H318.869C319.066 51.5818 319.238 50.7427 319.238 48.6696L319.262 48.7189ZM198.43 61.4289C191.72 61.4289 186.042 55.9254 186.042 48.3487C186.042 40.7721 191.72 35.2685 198.43 35.2685C205.14 35.2685 210.818 40.7721 210.818 48.3487C210.818 55.9254 205.14 61.4289 198.43 61.4289ZM280.353 42.3763C281.017 39.2913 284.065 33.4916 292.078 33.4916C300.09 33.4916 303.163 39.2913 303.802 42.3763H280.353Z" fill="#0077C8"/>
<path d="M115.154 74.3335H130.639V46.0507C130.639 42.867 130.639 35.1917 139.512 35.1917C147.623 35.1917 147.623 42.2994 147.623 45.9767V74.3582H163.108V41.8552C163.108 31.6378 159.938 27.5163 157.136 25.0977C154.334 22.6544 148.828 20.606 143.887 20.606C134.645 20.606 131.376 25.3938 129.803 27.9112H129.607V22.3829H115.154V74.3335ZM108.616 74.3335H93.1311V22.3336H108.616V74.3335ZM44.6115 48.4693C44.6115 42.5709 48.5195 35.0683 57.3927 35.0683C66.1675 35.0683 70.4443 42.0032 70.4443 48.2719C70.4443 53.3312 67.1753 61.5742 57.4665 61.5742C48.1263 61.5742 44.5869 53.3312 44.5869 48.4693M85.9294 22.3336H70.4443V27.8618H70.2477C68.3797 24.6781 63.6359 20.5566 55.1314 20.5566C41.3178 20.5566 29.102 31.2429 29.102 48.2965C29.102 63.203 38.7124 76.1105 55.1314 76.1105C61.2025 76.1105 67.6423 73.7659 70.2477 68.7066H70.4443V74.3335H85.9294V22.3336ZM0 22.3336H14.5509V27.8618H14.7476C16.0503 25.3445 18.7541 20.5566 27.7255 20.5566V36.2035C20.5484 36.401 15.5095 37.8817 15.5095 45.7545V74.3335H0.0246033V22.3336H0Z" fill="#A6A9AA"/>
<path d="M110.116 9.27954C110.116 4.17086 105.987 0 100.875 0C95.7866 0 91.6328 4.14618 91.6328 9.27954C91.6328 14.4129 95.762 18.5591 100.875 18.5591C105.962 18.5591 110.116 14.4129 110.116 9.27954Z" fill="#0075C9"/>
<path d="M311.738 15.3233H309.82V14.1387H315.007V15.3233H313.089V22.5297H311.762V15.3233H311.738Z" fill="#0075C9"/>
<path d="M315.891 22.5297V14.1387H317.709L320.315 20.6294L322.871 14.1387H324.69V22.5297H323.461V15.4467L320.733 22.5297H319.872L317.095 15.4467V22.5297H315.891Z" fill="#0075C9"/>
</svg>
