<svg width="75" height="75" viewBox="0 0 75 75" fill="none" xmlns="http://www.w3.org/2000/svg">
<circle cx="37.0074" cy="37.0074" r="37.0074" fill="#0077C8"/>
<path d="M37 21.2415V18.002" stroke="white" stroke-width="1.64" stroke-miterlimit="10" stroke-linecap="round"/>
<path d="M27.9605 24.0907L26.1016 21.4355" stroke="white" stroke-width="1.64" stroke-miterlimit="10" stroke-linecap="round"/>
<path d="M22.2008 31.6091L19.1526 30.5" stroke="white" stroke-width="1.64" stroke-miterlimit="10" stroke-linecap="round"/>
<path d="M21.7872 41.0723L18.6562 41.9125" stroke="white" stroke-width="1.64" stroke-miterlimit="10" stroke-linecap="round"/>
<path d="M27.9605 24.0907L26.1016 21.4355" stroke="white" stroke-width="1.64" stroke-miterlimit="10" stroke-linecap="round"/>
<path d="M51.6172 31.6091L54.6628 30.5" stroke="white" stroke-width="1.64" stroke-miterlimit="10" stroke-linecap="round"/>
<path d="M52.0273 41.0723L55.1582 41.9125" stroke="white" stroke-width="1.64" stroke-miterlimit="10" stroke-linecap="round"/>
<path d="M45.8516 24.0907L47.7105 21.4355" stroke="white" stroke-width="1.64" stroke-miterlimit="10" stroke-linecap="round"/>
<path d="M45.5919 30.8454C45.8581 30.7265 46.096 31.0574 45.9021 31.2746L38.9216 39.0617C38.3321 39.6124 37.7374 39.9485 36.9437 39.9304C35.6019 39.902 34.485 38.7903 34.454 37.451C34.4256 36.3006 35.0848 35.4474 36.1655 34.9691L45.5919 30.8454Z" fill="#1584CD" stroke="white" stroke-width="1.64" stroke-miterlimit="10" stroke-linecap="round"/>
<path d="M37 56C47.4934 56 56 47.4934 56 37C56 26.5066 47.4934 18 37 18C26.5066 18 18 26.5066 18 37C18 47.4934 26.5066 56 37 56Z" stroke="white" stroke-width="1.64" stroke-miterlimit="10" stroke-linecap="round"/>
</svg>
